<mxfile host="app.diagrams.net" modified="2023-10-01T17:28:53.559Z" agent="Mozilla/5.0 (Windows NT 10.0; Win64; x64; rv:109.0) Gecko/20100101 Firefox/118.0" etag="RugQ4c5Beh3Br7uLQ4On" version="22.0.0" type="device">
  <diagram name="Pagina-1" id="ruED8KApXvsvsav0EOmQ">
    <mxGraphModel dx="3386" dy="783" grid="1" gridSize="12" guides="1" tooltips="1" connect="1" arrows="1" fold="1" page="1" pageScale="1" pageWidth="1654" pageHeight="1169" math="0" shadow="0">
      <root>
        <mxCell id="0" />
        <mxCell id="1" parent="0" />
        <mxCell id="Hz8rqVoHaeQYQRgCHm7I-2" style="edgeStyle=orthogonalEdgeStyle;rounded=0;orthogonalLoop=1;jettySize=auto;html=1;endArrow=none;endFill=0;" parent="1" source="Hz8rqVoHaeQYQRgCHm7I-1" target="Hz8rqVoHaeQYQRgCHm7I-3" edge="1">
          <mxGeometry relative="1" as="geometry">
            <mxPoint x="620" y="370" as="targetPoint" />
          </mxGeometry>
        </mxCell>
        <mxCell id="CA8DIJyEQ-BG8HpjzGWb-2" style="edgeStyle=orthogonalEdgeStyle;rounded=0;orthogonalLoop=1;jettySize=auto;html=1;exitX=0.25;exitY=1;exitDx=0;exitDy=0;endArrow=none;endFill=0;" parent="1" source="Hz8rqVoHaeQYQRgCHm7I-1" target="CA8DIJyEQ-BG8HpjzGWb-3" edge="1">
          <mxGeometry relative="1" as="geometry">
            <mxPoint x="350" y="470" as="targetPoint" />
          </mxGeometry>
        </mxCell>
        <mxCell id="CA8DIJyEQ-BG8HpjzGWb-11" style="edgeStyle=orthogonalEdgeStyle;rounded=0;orthogonalLoop=1;jettySize=auto;html=1;endArrow=none;endFill=0;exitX=0.826;exitY=0.017;exitDx=0;exitDy=0;exitPerimeter=0;" parent="1" source="Hz8rqVoHaeQYQRgCHm7I-1" target="CA8DIJyEQ-BG8HpjzGWb-12" edge="1">
          <mxGeometry relative="1" as="geometry">
            <mxPoint x="472.5" y="280" as="targetPoint" />
          </mxGeometry>
        </mxCell>
        <mxCell id="CA8DIJyEQ-BG8HpjzGWb-32" value="" style="edgeStyle=orthogonalEdgeStyle;rounded=0;orthogonalLoop=1;jettySize=auto;html=1;endArrow=none;endFill=0;" parent="1" source="Hz8rqVoHaeQYQRgCHm7I-1" target="Hz8rqVoHaeQYQRgCHm7I-3" edge="1">
          <mxGeometry relative="1" as="geometry" />
        </mxCell>
        <mxCell id="CA8DIJyEQ-BG8HpjzGWb-40" style="edgeStyle=orthogonalEdgeStyle;rounded=0;orthogonalLoop=1;jettySize=auto;html=1;exitX=1;exitY=0.25;exitDx=0;exitDy=0;entryX=0;entryY=0.5;entryDx=0;entryDy=0;endArrow=none;endFill=0;" parent="1" source="Hz8rqVoHaeQYQRgCHm7I-1" target="CA8DIJyEQ-BG8HpjzGWb-42" edge="1">
          <mxGeometry relative="1" as="geometry">
            <mxPoint x="660" y="250" as="targetPoint" />
            <Array as="points">
              <mxPoint x="526" y="350" />
              <mxPoint x="601" y="350" />
              <mxPoint x="601" y="300" />
              <mxPoint x="680" y="300" />
            </Array>
          </mxGeometry>
        </mxCell>
        <mxCell id="X5VYXHr65bgpFRcitx1M-48" style="edgeStyle=orthogonalEdgeStyle;rounded=0;orthogonalLoop=1;jettySize=auto;html=1;endArrow=oval;endFill=0;entryX=1;entryY=0.078;entryDx=0;entryDy=0;entryPerimeter=0;" parent="1" target="X5VYXHr65bgpFRcitx1M-51" edge="1">
          <mxGeometry relative="1" as="geometry">
            <mxPoint x="381.25" y="358" as="targetPoint" />
            <mxPoint x="421.25" y="358.5" as="sourcePoint" />
            <Array as="points">
              <mxPoint x="421" y="360" />
              <mxPoint x="381" y="360" />
            </Array>
          </mxGeometry>
        </mxCell>
        <mxCell id="X5VYXHr65bgpFRcitx1M-50" style="edgeStyle=orthogonalEdgeStyle;rounded=0;orthogonalLoop=1;jettySize=auto;html=1;endArrow=oval;endFill=0;exitX=0.001;exitY=0.583;exitDx=0;exitDy=0;exitPerimeter=0;" parent="1" source="Hz8rqVoHaeQYQRgCHm7I-1" target="X5VYXHr65bgpFRcitx1M-51" edge="1">
          <mxGeometry relative="1" as="geometry">
            <mxPoint x="390" y="380" as="targetPoint" />
            <Array as="points">
              <mxPoint x="421" y="370" />
            </Array>
          </mxGeometry>
        </mxCell>
        <mxCell id="X5VYXHr65bgpFRcitx1M-60" style="edgeStyle=orthogonalEdgeStyle;rounded=0;orthogonalLoop=1;jettySize=auto;html=1;exitX=-0.008;exitY=0.075;exitDx=0;exitDy=0;exitPerimeter=0;endArrow=oval;endFill=1;" parent="1" source="Hz8rqVoHaeQYQRgCHm7I-1" target="X5VYXHr65bgpFRcitx1M-58" edge="1">
          <mxGeometry relative="1" as="geometry" />
        </mxCell>
        <mxCell id="X5VYXHr65bgpFRcitx1M-61" style="edgeStyle=orthogonalEdgeStyle;rounded=0;orthogonalLoop=1;jettySize=auto;html=1;endArrow=oval;endFill=0;entryX=1.013;entryY=0.406;entryDx=0;entryDy=0;entryPerimeter=0;" parent="1" source="Hz8rqVoHaeQYQRgCHm7I-1" target="X5VYXHr65bgpFRcitx1M-62" edge="1">
          <mxGeometry relative="1" as="geometry">
            <mxPoint x="400" y="390" as="targetPoint" />
            <Array as="points">
              <mxPoint x="410" y="390" />
            </Array>
          </mxGeometry>
        </mxCell>
        <mxCell id="X5VYXHr65bgpFRcitx1M-63" style="edgeStyle=orthogonalEdgeStyle;rounded=0;orthogonalLoop=1;jettySize=auto;html=1;exitX=0.088;exitY=-0.011;exitDx=0;exitDy=0;exitPerimeter=0;endArrow=oval;endFill=0;" parent="1" source="Hz8rqVoHaeQYQRgCHm7I-1" edge="1">
          <mxGeometry relative="1" as="geometry">
            <mxPoint x="430" y="310" as="targetPoint" />
          </mxGeometry>
        </mxCell>
        <mxCell id="X5VYXHr65bgpFRcitx1M-69" style="edgeStyle=orthogonalEdgeStyle;rounded=0;orthogonalLoop=1;jettySize=auto;html=1;exitX=0;exitY=1;exitDx=0;exitDy=0;endArrow=oval;endFill=0;" parent="1" source="Hz8rqVoHaeQYQRgCHm7I-1" edge="1">
          <mxGeometry relative="1" as="geometry">
            <mxPoint x="400" y="410" as="targetPoint" />
          </mxGeometry>
        </mxCell>
        <mxCell id="nLwUZ7-GpoZsQczw0JLD-102" style="edgeStyle=orthogonalEdgeStyle;rounded=0;orthogonalLoop=1;jettySize=auto;html=1;exitX=0.5;exitY=0;exitDx=0;exitDy=0;endArrow=none;endFill=0;" edge="1" parent="1" source="Hz8rqVoHaeQYQRgCHm7I-1">
          <mxGeometry relative="1" as="geometry">
            <mxPoint x="324" y="276" as="targetPoint" />
            <Array as="points">
              <mxPoint x="474" y="276" />
            </Array>
          </mxGeometry>
        </mxCell>
        <mxCell id="Hz8rqVoHaeQYQRgCHm7I-1" value="&lt;font style=&quot;font-size: 12px;&quot;&gt;Film&lt;/font&gt;" style="rounded=0;whiteSpace=wrap;html=1;fillColor=#fff2cc;strokeColor=#d6b656;" parent="1" vertex="1">
          <mxGeometry x="421.25" y="338" width="105" height="60" as="geometry" />
        </mxCell>
        <mxCell id="Hz8rqVoHaeQYQRgCHm7I-4" style="edgeStyle=orthogonalEdgeStyle;rounded=0;orthogonalLoop=1;jettySize=auto;html=1;endArrow=none;endFill=0;" parent="1" source="Hz8rqVoHaeQYQRgCHm7I-3" target="Hz8rqVoHaeQYQRgCHm7I-5" edge="1">
          <mxGeometry relative="1" as="geometry">
            <mxPoint x="820" y="370" as="targetPoint" />
          </mxGeometry>
        </mxCell>
        <mxCell id="Hz8rqVoHaeQYQRgCHm7I-3" value="Partecipazione" style="rhombus;whiteSpace=wrap;html=1;fillColor=#fff2cc;strokeColor=#d6b656;" parent="1" vertex="1">
          <mxGeometry x="590" y="332.5" width="90" height="75" as="geometry" />
        </mxCell>
        <mxCell id="Hz8rqVoHaeQYQRgCHm7I-69" style="edgeStyle=orthogonalEdgeStyle;rounded=0;orthogonalLoop=1;jettySize=auto;html=1;endArrow=none;endFill=0;" parent="1" source="Hz8rqVoHaeQYQRgCHm7I-5" target="Hz8rqVoHaeQYQRgCHm7I-70" edge="1">
          <mxGeometry relative="1" as="geometry">
            <mxPoint x="950" y="560" as="targetPoint" />
          </mxGeometry>
        </mxCell>
        <mxCell id="X5VYXHr65bgpFRcitx1M-84" style="edgeStyle=orthogonalEdgeStyle;rounded=0;orthogonalLoop=1;jettySize=auto;html=1;endArrow=oval;endFill=1;" parent="1" source="Hz8rqVoHaeQYQRgCHm7I-5" edge="1">
          <mxGeometry relative="1" as="geometry">
            <mxPoint x="805" y="330" as="targetPoint" />
          </mxGeometry>
        </mxCell>
        <mxCell id="X5VYXHr65bgpFRcitx1M-86" style="edgeStyle=orthogonalEdgeStyle;rounded=0;orthogonalLoop=1;jettySize=auto;html=1;endArrow=oval;endFill=0;exitX=1;exitY=0.25;exitDx=0;exitDy=0;" parent="1" source="Hz8rqVoHaeQYQRgCHm7I-5" edge="1">
          <mxGeometry relative="1" as="geometry">
            <mxPoint x="880" y="360" as="targetPoint" />
          </mxGeometry>
        </mxCell>
        <mxCell id="X5VYXHr65bgpFRcitx1M-88" style="edgeStyle=orthogonalEdgeStyle;rounded=0;orthogonalLoop=1;jettySize=auto;html=1;endArrow=oval;endFill=0;" parent="1" source="Hz8rqVoHaeQYQRgCHm7I-5" edge="1">
          <mxGeometry relative="1" as="geometry">
            <mxPoint x="880" y="380" as="targetPoint" />
            <Array as="points">
              <mxPoint x="880" y="380" />
              <mxPoint x="880" y="380" />
            </Array>
          </mxGeometry>
        </mxCell>
        <mxCell id="Hz8rqVoHaeQYQRgCHm7I-5" value="Attori" style="rounded=0;whiteSpace=wrap;html=1;fillColor=#fff2cc;strokeColor=#d6b656;" parent="1" vertex="1">
          <mxGeometry x="760" y="350" width="90" height="40" as="geometry" />
        </mxCell>
        <mxCell id="X5VYXHr65bgpFRcitx1M-78" style="edgeStyle=orthogonalEdgeStyle;rounded=0;orthogonalLoop=1;jettySize=auto;html=1;endArrow=oval;endFill=1;" parent="1" source="Hz8rqVoHaeQYQRgCHm7I-8" edge="1">
          <mxGeometry relative="1" as="geometry">
            <mxPoint x="440" y="660" as="targetPoint" />
            <Array as="points">
              <mxPoint x="440" y="650" />
              <mxPoint x="440" y="650" />
            </Array>
          </mxGeometry>
        </mxCell>
        <mxCell id="X5VYXHr65bgpFRcitx1M-80" style="edgeStyle=orthogonalEdgeStyle;rounded=0;orthogonalLoop=1;jettySize=auto;html=1;endArrow=oval;endFill=0;" parent="1" source="Hz8rqVoHaeQYQRgCHm7I-8" edge="1">
          <mxGeometry relative="1" as="geometry">
            <mxPoint x="500" y="660" as="targetPoint" />
            <Array as="points">
              <mxPoint x="500" y="660" />
              <mxPoint x="500" y="660" />
            </Array>
          </mxGeometry>
        </mxCell>
        <mxCell id="Hz8rqVoHaeQYQRgCHm7I-8" value="Premio" style="rounded=0;whiteSpace=wrap;html=1;fillColor=#fff2cc;strokeColor=#d6b656;" parent="1" vertex="1">
          <mxGeometry x="427.5" y="590" width="90" height="40" as="geometry" />
        </mxCell>
        <mxCell id="Hz8rqVoHaeQYQRgCHm7I-38" style="edgeStyle=orthogonalEdgeStyle;rounded=0;orthogonalLoop=1;jettySize=auto;html=1;strokeColor=none;" parent="1" edge="1">
          <mxGeometry relative="1" as="geometry">
            <mxPoint x="460" y="940" as="targetPoint" />
            <mxPoint x="620" y="820" as="sourcePoint" />
          </mxGeometry>
        </mxCell>
        <mxCell id="Hz8rqVoHaeQYQRgCHm7I-56" style="edgeStyle=orthogonalEdgeStyle;rounded=0;orthogonalLoop=1;jettySize=auto;html=1;endArrow=none;endFill=0;" parent="1" source="Hz8rqVoHaeQYQRgCHm7I-55" target="Hz8rqVoHaeQYQRgCHm7I-8" edge="1">
          <mxGeometry relative="1" as="geometry" />
        </mxCell>
        <mxCell id="CA8DIJyEQ-BG8HpjzGWb-9" style="edgeStyle=orthogonalEdgeStyle;rounded=0;orthogonalLoop=1;jettySize=auto;html=1;entryX=0.5;entryY=1;entryDx=0;entryDy=0;endArrow=none;endFill=0;" parent="1" source="Hz8rqVoHaeQYQRgCHm7I-55" target="Hz8rqVoHaeQYQRgCHm7I-1" edge="1">
          <mxGeometry relative="1" as="geometry">
            <mxPoint x="470" y="380" as="targetPoint" />
          </mxGeometry>
        </mxCell>
        <mxCell id="Hz8rqVoHaeQYQRgCHm7I-55" value="Vinto" style="rhombus;whiteSpace=wrap;html=1;fillColor=#fff2cc;strokeColor=#d6b656;" parent="1" vertex="1">
          <mxGeometry x="431.25" y="460" width="82.5" height="60" as="geometry" />
        </mxCell>
        <mxCell id="Hz8rqVoHaeQYQRgCHm7I-73" style="edgeStyle=orthogonalEdgeStyle;rounded=0;orthogonalLoop=1;jettySize=auto;html=1;endArrow=none;endFill=0;" parent="1" source="Hz8rqVoHaeQYQRgCHm7I-70" target="Hz8rqVoHaeQYQRgCHm7I-8" edge="1">
          <mxGeometry relative="1" as="geometry" />
        </mxCell>
        <mxCell id="Hz8rqVoHaeQYQRgCHm7I-70" value="Premiazione Attore" style="rhombus;whiteSpace=wrap;html=1;fillColor=#fff2cc;strokeColor=#d6b656;" parent="1" vertex="1">
          <mxGeometry x="765" y="580" width="80" height="60" as="geometry" />
        </mxCell>
        <mxCell id="CA8DIJyEQ-BG8HpjzGWb-4" style="edgeStyle=orthogonalEdgeStyle;rounded=0;orthogonalLoop=1;jettySize=auto;html=1;endArrow=none;endFill=0;" parent="1" source="CA8DIJyEQ-BG8HpjzGWb-3" target="CA8DIJyEQ-BG8HpjzGWb-5" edge="1">
          <mxGeometry relative="1" as="geometry">
            <mxPoint x="350" y="570" as="targetPoint" />
          </mxGeometry>
        </mxCell>
        <mxCell id="CA8DIJyEQ-BG8HpjzGWb-3" value="Direzione" style="rhombus;whiteSpace=wrap;html=1;fillColor=#fff2cc;strokeColor=#d6b656;" parent="1" vertex="1">
          <mxGeometry x="310" y="460" width="80" height="60" as="geometry" />
        </mxCell>
        <mxCell id="CA8DIJyEQ-BG8HpjzGWb-6" style="edgeStyle=orthogonalEdgeStyle;rounded=0;orthogonalLoop=1;jettySize=auto;html=1;endArrow=none;endFill=0;" parent="1" source="CA8DIJyEQ-BG8HpjzGWb-5" target="CA8DIJyEQ-BG8HpjzGWb-7" edge="1">
          <mxGeometry relative="1" as="geometry">
            <mxPoint x="350" y="610" as="targetPoint" />
          </mxGeometry>
        </mxCell>
        <mxCell id="X5VYXHr65bgpFRcitx1M-82" style="edgeStyle=orthogonalEdgeStyle;rounded=0;orthogonalLoop=1;jettySize=auto;html=1;endArrow=oval;endFill=1;" parent="1" source="CA8DIJyEQ-BG8HpjzGWb-5" edge="1">
          <mxGeometry relative="1" as="geometry">
            <mxPoint x="245" y="650" as="targetPoint" />
          </mxGeometry>
        </mxCell>
        <mxCell id="X5VYXHr65bgpFRcitx1M-91" style="edgeStyle=orthogonalEdgeStyle;rounded=0;orthogonalLoop=1;jettySize=auto;html=1;endArrow=oval;endFill=0;exitX=0;exitY=0.75;exitDx=0;exitDy=0;" parent="1" source="CA8DIJyEQ-BG8HpjzGWb-5" edge="1">
          <mxGeometry relative="1" as="geometry">
            <mxPoint x="180" y="620" as="targetPoint" />
            <Array as="points" />
          </mxGeometry>
        </mxCell>
        <mxCell id="X5VYXHr65bgpFRcitx1M-92" style="edgeStyle=orthogonalEdgeStyle;rounded=0;orthogonalLoop=1;jettySize=auto;html=1;exitX=0;exitY=0.25;exitDx=0;exitDy=0;endArrow=oval;endFill=0;" parent="1" source="CA8DIJyEQ-BG8HpjzGWb-5" edge="1">
          <mxGeometry relative="1" as="geometry">
            <mxPoint x="180" y="600" as="targetPoint" />
            <Array as="points">
              <mxPoint x="180" y="600" />
              <mxPoint x="180" y="600" />
            </Array>
          </mxGeometry>
        </mxCell>
        <mxCell id="CA8DIJyEQ-BG8HpjzGWb-5" value="Regista" style="rounded=0;whiteSpace=wrap;html=1;fillColor=#fff2cc;strokeColor=#d6b656;" parent="1" vertex="1">
          <mxGeometry x="200" y="590" width="90" height="40" as="geometry" />
        </mxCell>
        <mxCell id="CA8DIJyEQ-BG8HpjzGWb-8" style="edgeStyle=orthogonalEdgeStyle;rounded=0;orthogonalLoop=1;jettySize=auto;html=1;endArrow=none;endFill=0;" parent="1" source="CA8DIJyEQ-BG8HpjzGWb-7" target="Hz8rqVoHaeQYQRgCHm7I-8" edge="1">
          <mxGeometry relative="1" as="geometry" />
        </mxCell>
        <mxCell id="CA8DIJyEQ-BG8HpjzGWb-7" value="Premiazione Regista" style="rhombus;whiteSpace=wrap;html=1;fillColor=#fff2cc;strokeColor=#d6b656;" parent="1" vertex="1">
          <mxGeometry x="310" y="575" width="90" height="70" as="geometry" />
        </mxCell>
        <mxCell id="CA8DIJyEQ-BG8HpjzGWb-13" style="edgeStyle=orthogonalEdgeStyle;rounded=0;orthogonalLoop=1;jettySize=auto;html=1;endArrow=none;endFill=0;" parent="1" source="CA8DIJyEQ-BG8HpjzGWb-12" target="CA8DIJyEQ-BG8HpjzGWb-14" edge="1">
          <mxGeometry relative="1" as="geometry">
            <mxPoint x="473.75" y="170" as="targetPoint" />
          </mxGeometry>
        </mxCell>
        <mxCell id="CA8DIJyEQ-BG8HpjzGWb-12" value="Codifica" style="rhombus;whiteSpace=wrap;html=1;fillColor=#d5e8d4;strokeColor=#82b366;" parent="1" vertex="1">
          <mxGeometry x="465" y="215" width="87.5" height="60" as="geometry" />
        </mxCell>
        <mxCell id="nLwUZ7-GpoZsQczw0JLD-43" style="edgeStyle=orthogonalEdgeStyle;rounded=0;orthogonalLoop=1;jettySize=auto;html=1;endArrow=oval;endFill=1;exitX=0.413;exitY=-0.018;exitDx=0;exitDy=0;exitPerimeter=0;entryX=0.538;entryY=1.056;entryDx=0;entryDy=0;entryPerimeter=0;" edge="1" parent="1" source="CA8DIJyEQ-BG8HpjzGWb-14" target="nLwUZ7-GpoZsQczw0JLD-44">
          <mxGeometry relative="1" as="geometry">
            <mxPoint x="482.1900000000005" y="48" as="targetPoint" />
          </mxGeometry>
        </mxCell>
        <mxCell id="nLwUZ7-GpoZsQczw0JLD-45" style="edgeStyle=orthogonalEdgeStyle;rounded=0;orthogonalLoop=1;jettySize=auto;html=1;exitX=0.667;exitY=0.034;exitDx=0;exitDy=0;exitPerimeter=0;endArrow=oval;endFill=0;entryX=0.357;entryY=0.986;entryDx=0;entryDy=0;entryPerimeter=0;" edge="1" parent="1" source="CA8DIJyEQ-BG8HpjzGWb-14" target="nLwUZ7-GpoZsQczw0JLD-46">
          <mxGeometry relative="1" as="geometry">
            <mxPoint x="528" y="48" as="targetPoint" />
          </mxGeometry>
        </mxCell>
        <mxCell id="nLwUZ7-GpoZsQczw0JLD-47" style="edgeStyle=orthogonalEdgeStyle;rounded=0;orthogonalLoop=1;jettySize=auto;html=1;exitX=0.806;exitY=1.014;exitDx=0;exitDy=0;exitPerimeter=0;endArrow=oval;endFill=0;entryX=0.314;entryY=0.104;entryDx=0;entryDy=0;entryPerimeter=0;" edge="1" parent="1" source="CA8DIJyEQ-BG8HpjzGWb-14" target="nLwUZ7-GpoZsQczw0JLD-48">
          <mxGeometry relative="1" as="geometry">
            <mxPoint x="600" y="96.00000000000006" as="targetPoint" />
          </mxGeometry>
        </mxCell>
        <mxCell id="nLwUZ7-GpoZsQczw0JLD-50" style="edgeStyle=orthogonalEdgeStyle;rounded=0;orthogonalLoop=1;jettySize=auto;html=1;endArrow=none;endFill=0;" edge="1" parent="1" source="CA8DIJyEQ-BG8HpjzGWb-14" target="nLwUZ7-GpoZsQczw0JLD-51">
          <mxGeometry relative="1" as="geometry">
            <mxPoint x="612" y="96.00000000000006" as="targetPoint" />
            <Array as="points">
              <mxPoint x="590" y="96" />
              <mxPoint x="590" y="90" />
            </Array>
          </mxGeometry>
        </mxCell>
        <mxCell id="nLwUZ7-GpoZsQczw0JLD-52" style="edgeStyle=orthogonalEdgeStyle;rounded=0;orthogonalLoop=1;jettySize=auto;html=1;endArrow=none;endFill=0;" edge="1" parent="1" source="CA8DIJyEQ-BG8HpjzGWb-14">
          <mxGeometry relative="1" as="geometry">
            <mxPoint x="624" y="144" as="targetPoint" />
          </mxGeometry>
        </mxCell>
        <mxCell id="nLwUZ7-GpoZsQczw0JLD-135" style="edgeStyle=orthogonalEdgeStyle;rounded=0;orthogonalLoop=1;jettySize=auto;html=1;exitX=0.893;exitY=0;exitDx=0;exitDy=0;exitPerimeter=0;endArrow=none;endFill=0;" edge="1" parent="1" source="CA8DIJyEQ-BG8HpjzGWb-14">
          <mxGeometry relative="1" as="geometry">
            <mxPoint x="888" y="36" as="targetPoint" />
            <Array as="points">
              <mxPoint x="552" y="85" />
              <mxPoint x="552" y="36" />
            </Array>
          </mxGeometry>
        </mxCell>
        <mxCell id="CA8DIJyEQ-BG8HpjzGWb-14" value="Film Codificato" style="rounded=0;whiteSpace=wrap;html=1;fillColor=#d5e8d4;strokeColor=#82b366;" parent="1" vertex="1">
          <mxGeometry x="410" y="85" width="144.38" height="63.75" as="geometry" />
        </mxCell>
        <mxCell id="nLwUZ7-GpoZsQczw0JLD-4" style="edgeStyle=orthogonalEdgeStyle;rounded=0;orthogonalLoop=1;jettySize=auto;html=1;endArrow=none;endFill=0;" edge="1" parent="1" source="CA8DIJyEQ-BG8HpjzGWb-15">
          <mxGeometry relative="1" as="geometry">
            <mxPoint x="288" y="144.5" as="targetPoint" />
          </mxGeometry>
        </mxCell>
        <mxCell id="nLwUZ7-GpoZsQczw0JLD-26" style="edgeStyle=orthogonalEdgeStyle;rounded=0;orthogonalLoop=1;jettySize=auto;html=1;exitX=-0.01;exitY=0.088;exitDx=0;exitDy=0;exitPerimeter=0;entryX=1.02;entryY=0.598;entryDx=0;entryDy=0;entryPerimeter=0;endArrow=oval;endFill=1;" edge="1" parent="1" source="CA8DIJyEQ-BG8HpjzGWb-15" target="nLwUZ7-GpoZsQczw0JLD-27">
          <mxGeometry relative="1" as="geometry">
            <mxPoint x="84" y="114" as="targetPoint" />
          </mxGeometry>
        </mxCell>
        <mxCell id="nLwUZ7-GpoZsQczw0JLD-40" style="edgeStyle=orthogonalEdgeStyle;rounded=0;orthogonalLoop=1;jettySize=auto;html=1;exitX=1.03;exitY=0.833;exitDx=0;exitDy=0;exitPerimeter=0;endArrow=oval;endFill=0;" edge="1" parent="1" source="CA8DIJyEQ-BG8HpjzGWb-15">
          <mxGeometry relative="1" as="geometry">
            <mxPoint x="240" y="168" as="targetPoint" />
          </mxGeometry>
        </mxCell>
        <mxCell id="CA8DIJyEQ-BG8HpjzGWb-15" value="Formato Audio" style="rounded=0;whiteSpace=wrap;html=1;fillColor=#d5e8d4;strokeColor=#82b366;" parent="1" vertex="1">
          <mxGeometry x="103.12" y="108" width="110" height="73" as="geometry" />
        </mxCell>
        <mxCell id="nLwUZ7-GpoZsQczw0JLD-1" style="edgeStyle=orthogonalEdgeStyle;rounded=0;orthogonalLoop=1;jettySize=auto;html=1;endArrow=none;endFill=0;" edge="1" parent="1" source="CA8DIJyEQ-BG8HpjzGWb-22">
          <mxGeometry relative="1" as="geometry">
            <mxPoint x="300" y="48" as="targetPoint" />
          </mxGeometry>
        </mxCell>
        <mxCell id="nLwUZ7-GpoZsQczw0JLD-13" value="" style="edgeStyle=orthogonalEdgeStyle;rounded=0;orthogonalLoop=1;jettySize=auto;html=1;exitX=-0.004;exitY=0.161;exitDx=0;exitDy=0;exitPerimeter=0;endArrow=oval;endFill=1;" edge="1" parent="1" source="CA8DIJyEQ-BG8HpjzGWb-22" target="nLwUZ7-GpoZsQczw0JLD-12">
          <mxGeometry relative="1" as="geometry">
            <mxPoint x="96" y="24" as="sourcePoint" />
            <Array as="points">
              <mxPoint x="96" y="24" />
              <mxPoint x="96" y="24" />
            </Array>
          </mxGeometry>
        </mxCell>
        <mxCell id="nLwUZ7-GpoZsQczw0JLD-14" style="edgeStyle=orthogonalEdgeStyle;rounded=0;orthogonalLoop=1;jettySize=auto;html=1;entryX=0.973;entryY=0.488;entryDx=0;entryDy=0;entryPerimeter=0;exitX=-0.007;exitY=0.561;exitDx=0;exitDy=0;exitPerimeter=0;endArrow=oval;endFill=0;" edge="1" parent="1" source="CA8DIJyEQ-BG8HpjzGWb-22" target="nLwUZ7-GpoZsQczw0JLD-16">
          <mxGeometry relative="1" as="geometry">
            <mxPoint x="84" y="48" as="targetPoint" />
            <Array as="points">
              <mxPoint x="102" y="51" />
              <mxPoint x="84" y="51" />
            </Array>
          </mxGeometry>
        </mxCell>
        <mxCell id="nLwUZ7-GpoZsQczw0JLD-17" style="edgeStyle=orthogonalEdgeStyle;rounded=0;orthogonalLoop=1;jettySize=auto;html=1;entryX=1.044;entryY=0.504;entryDx=0;entryDy=0;entryPerimeter=0;exitX=-0.017;exitY=0.394;exitDx=0;exitDy=0;exitPerimeter=0;endArrow=oval;endFill=0;" edge="1" parent="1" source="CA8DIJyEQ-BG8HpjzGWb-22" target="nLwUZ7-GpoZsQczw0JLD-15">
          <mxGeometry relative="1" as="geometry">
            <mxPoint x="72" y="72" as="targetPoint" />
            <Array as="points">
              <mxPoint x="97" y="40" />
            </Array>
          </mxGeometry>
        </mxCell>
        <mxCell id="nLwUZ7-GpoZsQczw0JLD-21" style="edgeStyle=orthogonalEdgeStyle;rounded=0;orthogonalLoop=1;jettySize=auto;html=1;exitX=0.997;exitY=0.822;exitDx=0;exitDy=0;exitPerimeter=0;endArrow=oval;endFill=0;" edge="1" parent="1" source="CA8DIJyEQ-BG8HpjzGWb-22">
          <mxGeometry relative="1" as="geometry">
            <mxPoint x="240" y="72" as="targetPoint" />
          </mxGeometry>
        </mxCell>
        <mxCell id="CA8DIJyEQ-BG8HpjzGWb-22" value="Formato Video" style="rounded=0;whiteSpace=wrap;html=1;fillColor=#d5e8d4;strokeColor=#82b366;" parent="1" vertex="1">
          <mxGeometry x="103.12" y="12" width="110" height="72" as="geometry" />
        </mxCell>
        <mxCell id="CA8DIJyEQ-BG8HpjzGWb-33" value="Partecipazione" style="rhombus;whiteSpace=wrap;html=1;fillColor=#fff2cc;strokeColor=#d6b656;" parent="1" vertex="1">
          <mxGeometry x="590" y="332.5" width="90" height="75" as="geometry" />
        </mxCell>
        <mxCell id="CA8DIJyEQ-BG8HpjzGWb-48" style="edgeStyle=orthogonalEdgeStyle;rounded=0;orthogonalLoop=1;jettySize=auto;html=1;endArrow=none;endFill=0;" parent="1" source="CA8DIJyEQ-BG8HpjzGWb-37" target="CA8DIJyEQ-BG8HpjzGWb-49" edge="1">
          <mxGeometry relative="1" as="geometry">
            <mxPoint x="1150" y="265" as="targetPoint" />
          </mxGeometry>
        </mxCell>
        <mxCell id="CA8DIJyEQ-BG8HpjzGWb-60" value="" style="edgeStyle=orthogonalEdgeStyle;rounded=0;orthogonalLoop=1;jettySize=auto;html=1;endArrow=none;endFill=0;" parent="1" source="CA8DIJyEQ-BG8HpjzGWb-37" target="CA8DIJyEQ-BG8HpjzGWb-59" edge="1">
          <mxGeometry relative="1" as="geometry" />
        </mxCell>
        <mxCell id="X5VYXHr65bgpFRcitx1M-98" style="edgeStyle=orthogonalEdgeStyle;rounded=0;orthogonalLoop=1;jettySize=auto;html=1;exitX=0.658;exitY=0.013;exitDx=0;exitDy=0;exitPerimeter=0;endArrow=oval;endFill=1;" parent="1" source="CA8DIJyEQ-BG8HpjzGWb-37" edge="1">
          <mxGeometry relative="1" as="geometry">
            <mxPoint x="1050" y="190" as="targetPoint" />
            <Array as="points">
              <mxPoint x="1050" y="221" />
              <mxPoint x="1050" y="190" />
            </Array>
          </mxGeometry>
        </mxCell>
        <mxCell id="X5VYXHr65bgpFRcitx1M-100" style="edgeStyle=orthogonalEdgeStyle;rounded=0;orthogonalLoop=1;jettySize=auto;html=1;endArrow=none;endFill=0;" parent="1" target="X5VYXHr65bgpFRcitx1M-103" edge="1">
          <mxGeometry relative="1" as="geometry">
            <mxPoint x="990" y="160" as="targetPoint" />
            <mxPoint x="990" y="220" as="sourcePoint" />
            <Array as="points">
              <mxPoint x="991" y="220" />
            </Array>
          </mxGeometry>
        </mxCell>
        <mxCell id="TzTqIZtNaXJvueZtooWY-65" style="edgeStyle=orthogonalEdgeStyle;rounded=0;orthogonalLoop=1;jettySize=auto;html=1;entryX=0.5;entryY=0;entryDx=0;entryDy=0;endArrow=none;endFill=0;" parent="1" source="CA8DIJyEQ-BG8HpjzGWb-51" target="CA8DIJyEQ-BG8HpjzGWb-57" edge="1">
          <mxGeometry relative="1" as="geometry">
            <mxPoint x="1270" y="400" as="targetPoint" />
          </mxGeometry>
        </mxCell>
        <mxCell id="nLwUZ7-GpoZsQczw0JLD-162" style="edgeStyle=orthogonalEdgeStyle;rounded=0;orthogonalLoop=1;jettySize=auto;html=1;" edge="1" parent="1" source="CA8DIJyEQ-BG8HpjzGWb-37">
          <mxGeometry relative="1" as="geometry">
            <mxPoint x="852" y="216" as="targetPoint" />
          </mxGeometry>
        </mxCell>
        <mxCell id="CA8DIJyEQ-BG8HpjzGWb-37" value="Utente" style="rounded=0;whiteSpace=wrap;html=1;fillColor=#f8cecc;strokeColor=#b85450;" parent="1" vertex="1">
          <mxGeometry x="960" y="221" width="140" height="65" as="geometry" />
        </mxCell>
        <mxCell id="CA8DIJyEQ-BG8HpjzGWb-43" style="edgeStyle=orthogonalEdgeStyle;rounded=0;orthogonalLoop=1;jettySize=auto;html=1;endArrow=none;endFill=0;entryX=0;entryY=0.75;entryDx=0;entryDy=0;" parent="1" source="CA8DIJyEQ-BG8HpjzGWb-42" target="CA8DIJyEQ-BG8HpjzGWb-37" edge="1">
          <mxGeometry relative="1" as="geometry" />
        </mxCell>
        <mxCell id="CA8DIJyEQ-BG8HpjzGWb-42" value="Rating Utente" style="rhombus;whiteSpace=wrap;html=1;fillColor=#f8cecc;strokeColor=#b85450;" parent="1" vertex="1">
          <mxGeometry x="680" y="265" width="100" height="70" as="geometry" />
        </mxCell>
        <mxCell id="CA8DIJyEQ-BG8HpjzGWb-45" style="edgeStyle=orthogonalEdgeStyle;rounded=0;orthogonalLoop=1;jettySize=auto;html=1;endArrow=none;endFill=0;" parent="1" source="CA8DIJyEQ-BG8HpjzGWb-44" target="CA8DIJyEQ-BG8HpjzGWb-46" edge="1">
          <mxGeometry relative="1" as="geometry">
            <mxPoint x="1270" y="180" as="targetPoint" />
          </mxGeometry>
        </mxCell>
        <mxCell id="TzTqIZtNaXJvueZtooWY-15" style="edgeStyle=orthogonalEdgeStyle;rounded=0;orthogonalLoop=1;jettySize=auto;html=1;endArrow=oval;endFill=0;" parent="1" source="CA8DIJyEQ-BG8HpjzGWb-44" target="TzTqIZtNaXJvueZtooWY-17" edge="1">
          <mxGeometry relative="1" as="geometry">
            <mxPoint x="1393" y="48.5" as="targetPoint" />
            <Array as="points">
              <mxPoint x="1374" y="73.5" />
              <mxPoint x="1374" y="73.5" />
            </Array>
          </mxGeometry>
        </mxCell>
        <mxCell id="TzTqIZtNaXJvueZtooWY-18" style="edgeStyle=orthogonalEdgeStyle;rounded=0;orthogonalLoop=1;jettySize=auto;html=1;endArrow=oval;endFill=0;exitX=1.009;exitY=0.087;exitDx=0;exitDy=0;exitPerimeter=0;entryX=0.01;entryY=0.52;entryDx=0;entryDy=0;entryPerimeter=0;" parent="1" source="CA8DIJyEQ-BG8HpjzGWb-44" target="TzTqIZtNaXJvueZtooWY-19" edge="1">
          <mxGeometry relative="1" as="geometry">
            <mxPoint x="1474" y="123.5" as="targetPoint" />
            <Array as="points">
              <mxPoint x="1474" y="98.5" />
              <mxPoint x="1505" y="99.5" />
            </Array>
          </mxGeometry>
        </mxCell>
        <mxCell id="TzTqIZtNaXJvueZtooWY-21" style="edgeStyle=orthogonalEdgeStyle;rounded=0;orthogonalLoop=1;jettySize=auto;html=1;endArrow=oval;endFill=0;entryX=-0.011;entryY=0.48;entryDx=0;entryDy=0;entryPerimeter=0;" parent="1" target="TzTqIZtNaXJvueZtooWY-22" edge="1">
          <mxGeometry relative="1" as="geometry">
            <mxPoint x="1554" y="113.25" as="targetPoint" />
            <mxPoint x="1464" y="115.25" as="sourcePoint" />
            <Array as="points">
              <mxPoint x="1474" y="115.5" />
            </Array>
          </mxGeometry>
        </mxCell>
        <mxCell id="TzTqIZtNaXJvueZtooWY-26" style="edgeStyle=orthogonalEdgeStyle;rounded=0;orthogonalLoop=1;jettySize=auto;html=1;exitX=0.931;exitY=-0.007;exitDx=0;exitDy=0;exitPerimeter=0;endArrow=oval;endFill=0;entryX=0.305;entryY=1;entryDx=0;entryDy=0;entryPerimeter=0;" parent="1" source="CA8DIJyEQ-BG8HpjzGWb-44" target="TzTqIZtNaXJvueZtooWY-27" edge="1">
          <mxGeometry relative="1" as="geometry">
            <mxPoint x="1434" y="83.5" as="targetPoint" />
          </mxGeometry>
        </mxCell>
        <mxCell id="TzTqIZtNaXJvueZtooWY-33" style="edgeStyle=orthogonalEdgeStyle;rounded=0;orthogonalLoop=1;jettySize=auto;html=1;exitX=0.995;exitY=0.961;exitDx=0;exitDy=0;exitPerimeter=0;endArrow=oval;endFill=0;" parent="1" source="CA8DIJyEQ-BG8HpjzGWb-44" target="TzTqIZtNaXJvueZtooWY-31" edge="1">
          <mxGeometry relative="1" as="geometry">
            <Array as="points">
              <mxPoint x="1463" y="153.5" />
            </Array>
          </mxGeometry>
        </mxCell>
        <mxCell id="nLwUZ7-GpoZsQczw0JLD-160" value="(0,n)" style="edgeLabel;html=1;align=center;verticalAlign=middle;resizable=0;points=[];" vertex="1" connectable="0" parent="TzTqIZtNaXJvueZtooWY-33">
          <mxGeometry x="-0.4769" y="-4" relative="1" as="geometry">
            <mxPoint x="1" y="9" as="offset" />
          </mxGeometry>
        </mxCell>
        <mxCell id="TzTqIZtNaXJvueZtooWY-38" style="edgeStyle=orthogonalEdgeStyle;rounded=0;orthogonalLoop=1;jettySize=auto;html=1;exitX=0.106;exitY=-0.047;exitDx=0;exitDy=0;exitPerimeter=0;endArrow=oval;endFill=1;" parent="1" source="CA8DIJyEQ-BG8HpjzGWb-44" target="TzTqIZtNaXJvueZtooWY-14" edge="1">
          <mxGeometry relative="1" as="geometry" />
        </mxCell>
        <mxCell id="TzTqIZtNaXJvueZtooWY-40" style="edgeStyle=orthogonalEdgeStyle;rounded=0;orthogonalLoop=1;jettySize=auto;html=1;endArrow=oval;endFill=0;" parent="1" target="TzTqIZtNaXJvueZtooWY-41" edge="1">
          <mxGeometry relative="1" as="geometry">
            <mxPoint x="1423.75" y="73.5" as="targetPoint" />
            <mxPoint x="1423.75" y="93.5" as="sourcePoint" />
          </mxGeometry>
        </mxCell>
        <mxCell id="TzTqIZtNaXJvueZtooWY-45" style="edgeStyle=orthogonalEdgeStyle;rounded=0;orthogonalLoop=1;jettySize=auto;html=1;exitX=0.991;exitY=0.713;exitDx=0;exitDy=0;exitPerimeter=0;endArrow=oval;endFill=0;entryX=-0.008;entryY=0.553;entryDx=0;entryDy=0;entryPerimeter=0;" parent="1" source="CA8DIJyEQ-BG8HpjzGWb-44" target="TzTqIZtNaXJvueZtooWY-47" edge="1">
          <mxGeometry relative="1" as="geometry">
            <mxPoint x="1504" y="143.5" as="targetPoint" />
            <Array as="points">
              <mxPoint x="1503" y="136.5" />
            </Array>
          </mxGeometry>
        </mxCell>
        <mxCell id="nLwUZ7-GpoZsQczw0JLD-145" style="edgeStyle=orthogonalEdgeStyle;rounded=0;orthogonalLoop=1;jettySize=auto;html=1;entryX=0.5;entryY=0;entryDx=0;entryDy=0;exitX=0.829;exitY=1.042;exitDx=0;exitDy=0;exitPerimeter=0;" edge="1" parent="1" source="CA8DIJyEQ-BG8HpjzGWb-44" target="nLwUZ7-GpoZsQczw0JLD-146">
          <mxGeometry relative="1" as="geometry">
            <mxPoint x="1524" y="228" as="targetPoint" />
            <Array as="points">
              <mxPoint x="1440" y="192" />
              <mxPoint x="1446" y="192" />
            </Array>
          </mxGeometry>
        </mxCell>
        <mxCell id="nLwUZ7-GpoZsQczw0JLD-153" style="edgeStyle=orthogonalEdgeStyle;rounded=0;orthogonalLoop=1;jettySize=auto;html=1;entryX=0.25;entryY=1;entryDx=0;entryDy=0;exitX=0.928;exitY=1.009;exitDx=0;exitDy=0;exitPerimeter=0;" edge="1" parent="1">
          <mxGeometry relative="1" as="geometry">
            <mxPoint x="1452.9199999999992" y="154.03999999999996" as="sourcePoint" />
            <mxPoint x="172.99999999999955" y="356" as="targetPoint" />
            <Array as="points">
              <mxPoint x="1453" y="204" />
              <mxPoint x="1631" y="204" />
              <mxPoint x="1631" y="1056" />
              <mxPoint x="72" y="1056" />
              <mxPoint x="72" y="356" />
            </Array>
          </mxGeometry>
        </mxCell>
        <mxCell id="CA8DIJyEQ-BG8HpjzGWb-44" value="Abbonamento" style="rounded=0;whiteSpace=wrap;html=1;fillColor=#f8cecc;strokeColor=#b85450;" parent="1" vertex="1">
          <mxGeometry x="1324" y="93.5" width="140" height="60" as="geometry" />
        </mxCell>
        <mxCell id="CA8DIJyEQ-BG8HpjzGWb-47" style="edgeStyle=orthogonalEdgeStyle;rounded=0;orthogonalLoop=1;jettySize=auto;html=1;entryX=0.75;entryY=0;entryDx=0;entryDy=0;endArrow=none;endFill=0;" parent="1" source="CA8DIJyEQ-BG8HpjzGWb-46" target="CA8DIJyEQ-BG8HpjzGWb-37" edge="1">
          <mxGeometry relative="1" as="geometry" />
        </mxCell>
        <mxCell id="TzTqIZtNaXJvueZtooWY-61" style="edgeStyle=orthogonalEdgeStyle;rounded=0;orthogonalLoop=1;jettySize=auto;html=1;endArrow=oval;endFill=0;" parent="1" source="CA8DIJyEQ-BG8HpjzGWb-46" target="TzTqIZtNaXJvueZtooWY-62" edge="1">
          <mxGeometry relative="1" as="geometry">
            <mxPoint x="1270" y="120" as="targetPoint" />
          </mxGeometry>
        </mxCell>
        <mxCell id="CA8DIJyEQ-BG8HpjzGWb-46" value="Acquisto" style="rhombus;whiteSpace=wrap;html=1;fillColor=#f8cecc;strokeColor=#b85450;" parent="1" vertex="1">
          <mxGeometry x="1150" y="83" width="80" height="80" as="geometry" />
        </mxCell>
        <mxCell id="CA8DIJyEQ-BG8HpjzGWb-50" style="edgeStyle=orthogonalEdgeStyle;rounded=0;orthogonalLoop=1;jettySize=auto;html=1;endArrow=none;endFill=0;" parent="1" source="CA8DIJyEQ-BG8HpjzGWb-49" target="CA8DIJyEQ-BG8HpjzGWb-51" edge="1">
          <mxGeometry relative="1" as="geometry">
            <mxPoint x="1270" y="265" as="targetPoint" />
          </mxGeometry>
        </mxCell>
        <mxCell id="CA8DIJyEQ-BG8HpjzGWb-49" value="Possesso" style="rhombus;whiteSpace=wrap;html=1;fillColor=#f8cecc;strokeColor=#b85450;" parent="1" vertex="1">
          <mxGeometry x="1130" y="221.25" width="90" height="62.5" as="geometry" />
        </mxCell>
        <mxCell id="twbjdaluW3R16mWwh6AZ-12" style="edgeStyle=orthogonalEdgeStyle;rounded=0;orthogonalLoop=1;jettySize=auto;html=1;exitX=0.195;exitY=0.172;exitDx=0;exitDy=0;exitPerimeter=0;endArrow=oval;endFill=1;" parent="1" source="CA8DIJyEQ-BG8HpjzGWb-51" target="twbjdaluW3R16mWwh6AZ-10" edge="1">
          <mxGeometry relative="1" as="geometry">
            <mxPoint x="1284" y="228" as="sourcePoint" />
            <Array as="points">
              <mxPoint x="1286" y="240" />
            </Array>
          </mxGeometry>
        </mxCell>
        <mxCell id="twbjdaluW3R16mWwh6AZ-13" style="edgeStyle=orthogonalEdgeStyle;rounded=0;orthogonalLoop=1;jettySize=auto;html=1;endArrow=oval;endFill=0;entryX=0.619;entryY=0.208;entryDx=0;entryDy=0;entryPerimeter=0;exitX=0;exitY=1;exitDx=0;exitDy=0;" parent="1" edge="1" target="twbjdaluW3R16mWwh6AZ-14" source="CA8DIJyEQ-BG8HpjzGWb-51">
          <mxGeometry relative="1" as="geometry">
            <mxPoint x="1401" y="237.67" as="targetPoint" />
            <mxPoint x="1365" y="237.67" as="sourcePoint" />
          </mxGeometry>
        </mxCell>
        <mxCell id="CA8DIJyEQ-BG8HpjzGWb-51" value="Dati Fatturazione" style="rounded=0;whiteSpace=wrap;html=1;fillColor=#f8cecc;strokeColor=#b85450;" parent="1" vertex="1">
          <mxGeometry x="1265" y="233.75" width="100" height="36.25" as="geometry" />
        </mxCell>
        <mxCell id="TzTqIZtNaXJvueZtooWY-55" style="edgeStyle=orthogonalEdgeStyle;rounded=0;orthogonalLoop=1;jettySize=auto;html=1;endArrow=oval;endFill=0;" parent="1" source="CA8DIJyEQ-BG8HpjzGWb-55" edge="1">
          <mxGeometry relative="1" as="geometry">
            <mxPoint x="1570" y="410" as="targetPoint" />
            <Array as="points">
              <mxPoint x="1560" y="410" />
              <mxPoint x="1560" y="410" />
            </Array>
          </mxGeometry>
        </mxCell>
        <mxCell id="TzTqIZtNaXJvueZtooWY-66" style="edgeStyle=orthogonalEdgeStyle;rounded=0;orthogonalLoop=1;jettySize=auto;html=1;endArrow=oval;endFill=0;entryX=0.363;entryY=0.033;entryDx=0;entryDy=0;entryPerimeter=0;" parent="1" source="CA8DIJyEQ-BG8HpjzGWb-55" target="TzTqIZtNaXJvueZtooWY-67" edge="1">
          <mxGeometry relative="1" as="geometry">
            <mxPoint x="1480" y="450" as="targetPoint" />
            <Array as="points">
              <mxPoint x="1450" y="450" />
              <mxPoint x="1449" y="450" />
            </Array>
          </mxGeometry>
        </mxCell>
        <mxCell id="twbjdaluW3R16mWwh6AZ-1" style="edgeStyle=orthogonalEdgeStyle;rounded=0;orthogonalLoop=1;jettySize=auto;html=1;endArrow=none;endFill=0;" parent="1" source="CA8DIJyEQ-BG8HpjzGWb-55" edge="1">
          <mxGeometry relative="1" as="geometry">
            <mxPoint x="1224" y="400" as="targetPoint" />
          </mxGeometry>
        </mxCell>
        <mxCell id="CA8DIJyEQ-BG8HpjzGWb-55" value="Fattura" style="rounded=0;whiteSpace=wrap;html=1;fillColor=#f8cecc;strokeColor=#b85450;" parent="1" vertex="1">
          <mxGeometry x="1425" y="380" width="110" height="40" as="geometry" />
        </mxCell>
        <mxCell id="CA8DIJyEQ-BG8HpjzGWb-58" style="edgeStyle=orthogonalEdgeStyle;rounded=0;orthogonalLoop=1;jettySize=auto;html=1;endArrow=none;endFill=0;entryX=0.161;entryY=0.018;entryDx=0;entryDy=0;entryPerimeter=0;" parent="1" source="CA8DIJyEQ-BG8HpjzGWb-57" target="CA8DIJyEQ-BG8HpjzGWb-55" edge="1">
          <mxGeometry relative="1" as="geometry" />
        </mxCell>
        <mxCell id="TzTqIZtNaXJvueZtooWY-59" style="edgeStyle=orthogonalEdgeStyle;rounded=0;orthogonalLoop=1;jettySize=auto;html=1;endArrow=oval;endFill=0;" parent="1" source="CA8DIJyEQ-BG8HpjzGWb-57" edge="1">
          <mxGeometry relative="1" as="geometry">
            <mxPoint x="1315" y="372" as="targetPoint" />
          </mxGeometry>
        </mxCell>
        <mxCell id="CA8DIJyEQ-BG8HpjzGWb-57" value="Pagamento" style="rhombus;whiteSpace=wrap;html=1;fillColor=#f8cecc;strokeColor=#b85450;" parent="1" vertex="1">
          <mxGeometry x="1270" y="300" width="90" height="60" as="geometry" />
        </mxCell>
        <mxCell id="CA8DIJyEQ-BG8HpjzGWb-61" style="edgeStyle=orthogonalEdgeStyle;rounded=0;orthogonalLoop=1;jettySize=auto;html=1;endArrow=none;endFill=0;" parent="1" source="CA8DIJyEQ-BG8HpjzGWb-59" edge="1">
          <mxGeometry relative="1" as="geometry">
            <mxPoint x="1015" y="500" as="targetPoint" />
          </mxGeometry>
        </mxCell>
        <mxCell id="CA8DIJyEQ-BG8HpjzGWb-59" value="Inizializzazione" style="rhombus;whiteSpace=wrap;html=1;fillColor=#f8cecc;strokeColor=#b85450;rounded=0;" parent="1" vertex="1">
          <mxGeometry x="967.5" y="365" width="95" height="70" as="geometry" />
        </mxCell>
        <mxCell id="CA8DIJyEQ-BG8HpjzGWb-63" style="edgeStyle=orthogonalEdgeStyle;rounded=0;orthogonalLoop=1;jettySize=auto;html=1;endArrow=none;endFill=0;" parent="1" source="CA8DIJyEQ-BG8HpjzGWb-62" target="CA8DIJyEQ-BG8HpjzGWb-64" edge="1">
          <mxGeometry relative="1" as="geometry">
            <mxPoint x="1110" y="520" as="targetPoint" />
          </mxGeometry>
        </mxCell>
        <mxCell id="CA8DIJyEQ-BG8HpjzGWb-67" style="edgeStyle=orthogonalEdgeStyle;rounded=0;orthogonalLoop=1;jettySize=auto;html=1;endArrow=none;endFill=0;" parent="1" source="CA8DIJyEQ-BG8HpjzGWb-62" target="CA8DIJyEQ-BG8HpjzGWb-68" edge="1">
          <mxGeometry relative="1" as="geometry">
            <mxPoint x="1015" y="610" as="targetPoint" />
          </mxGeometry>
        </mxCell>
        <mxCell id="TzTqIZtNaXJvueZtooWY-1" style="edgeStyle=orthogonalEdgeStyle;rounded=0;orthogonalLoop=1;jettySize=auto;html=1;endArrow=oval;endFill=1;" parent="1" source="CA8DIJyEQ-BG8HpjzGWb-62" edge="1">
          <mxGeometry relative="1" as="geometry">
            <mxPoint x="930" y="510" as="targetPoint" />
            <Array as="points">
              <mxPoint x="940" y="510" />
              <mxPoint x="940" y="510" />
            </Array>
          </mxGeometry>
        </mxCell>
        <mxCell id="TzTqIZtNaXJvueZtooWY-3" style="edgeStyle=orthogonalEdgeStyle;rounded=0;orthogonalLoop=1;jettySize=auto;html=1;endArrow=oval;endFill=1;" parent="1" source="CA8DIJyEQ-BG8HpjzGWb-62" edge="1">
          <mxGeometry relative="1" as="geometry">
            <mxPoint x="930" y="530" as="targetPoint" />
            <Array as="points">
              <mxPoint x="940" y="530" />
              <mxPoint x="940" y="530" />
            </Array>
          </mxGeometry>
        </mxCell>
        <mxCell id="TzTqIZtNaXJvueZtooWY-7" style="edgeStyle=orthogonalEdgeStyle;rounded=0;orthogonalLoop=1;jettySize=auto;html=1;endArrow=oval;endFill=0;" parent="1" edge="1">
          <mxGeometry relative="1" as="geometry">
            <mxPoint x="1060" y="480" as="targetPoint" />
            <mxPoint x="1059.8" y="500" as="sourcePoint" />
            <Array as="points">
              <mxPoint x="1059.8" y="500" />
              <mxPoint x="1059.8" y="462" />
            </Array>
          </mxGeometry>
        </mxCell>
        <mxCell id="CA8DIJyEQ-BG8HpjzGWb-62" value="Connessione" style="rounded=0;whiteSpace=wrap;html=1;fillColor=#f8cecc;strokeColor=#b85450;" parent="1" vertex="1">
          <mxGeometry x="960" y="500" width="110" height="40" as="geometry" />
        </mxCell>
        <mxCell id="CA8DIJyEQ-BG8HpjzGWb-65" style="edgeStyle=orthogonalEdgeStyle;rounded=0;orthogonalLoop=1;jettySize=auto;html=1;endArrow=none;endFill=0;" parent="1" source="CA8DIJyEQ-BG8HpjzGWb-64" target="CA8DIJyEQ-BG8HpjzGWb-66" edge="1">
          <mxGeometry relative="1" as="geometry">
            <mxPoint x="1250" y="520" as="targetPoint" />
          </mxGeometry>
        </mxCell>
        <mxCell id="CA8DIJyEQ-BG8HpjzGWb-64" value="Utilizzo" style="rhombus;whiteSpace=wrap;html=1;fillColor=#f8cecc;strokeColor=#b85450;" parent="1" vertex="1">
          <mxGeometry x="1160" y="490" width="90" height="60" as="geometry" />
        </mxCell>
        <mxCell id="TzTqIZtNaXJvueZtooWY-10" style="edgeStyle=orthogonalEdgeStyle;rounded=0;orthogonalLoop=1;jettySize=auto;html=1;endArrow=oval;endFill=0;" parent="1" source="CA8DIJyEQ-BG8HpjzGWb-66" target="TzTqIZtNaXJvueZtooWY-9" edge="1">
          <mxGeometry relative="1" as="geometry">
            <Array as="points">
              <mxPoint x="1375" y="550" />
              <mxPoint x="1375" y="550" />
            </Array>
          </mxGeometry>
        </mxCell>
        <mxCell id="TzTqIZtNaXJvueZtooWY-11" style="edgeStyle=orthogonalEdgeStyle;rounded=0;orthogonalLoop=1;jettySize=auto;html=1;endArrow=oval;endFill=1;" parent="1" source="CA8DIJyEQ-BG8HpjzGWb-66" edge="1">
          <mxGeometry relative="1" as="geometry">
            <mxPoint x="1405" y="570" as="targetPoint" />
          </mxGeometry>
        </mxCell>
        <mxCell id="CA8DIJyEQ-BG8HpjzGWb-66" value="Dispositivo" style="rounded=0;whiteSpace=wrap;html=1;fillColor=#f8cecc;strokeColor=#b85450;" parent="1" vertex="1">
          <mxGeometry x="1350" y="500" width="110" height="40" as="geometry" />
        </mxCell>
        <mxCell id="CA8DIJyEQ-BG8HpjzGWb-69" style="edgeStyle=orthogonalEdgeStyle;rounded=0;orthogonalLoop=1;jettySize=auto;html=1;endArrow=none;endFill=0;" parent="1" source="CA8DIJyEQ-BG8HpjzGWb-68" target="CA8DIJyEQ-BG8HpjzGWb-70" edge="1">
          <mxGeometry relative="1" as="geometry">
            <mxPoint x="1015" y="710" as="targetPoint" />
          </mxGeometry>
        </mxCell>
        <mxCell id="CA8DIJyEQ-BG8HpjzGWb-68" value="Richiesta" style="rhombus;whiteSpace=wrap;html=1;fillColor=#dae8fc;strokeColor=#6c8ebf;" parent="1" vertex="1">
          <mxGeometry x="972.5" y="600" width="85" height="60" as="geometry" />
        </mxCell>
        <mxCell id="CA8DIJyEQ-BG8HpjzGWb-72" style="edgeStyle=orthogonalEdgeStyle;rounded=0;orthogonalLoop=1;jettySize=auto;html=1;endArrow=none;endFill=0;" parent="1" source="CA8DIJyEQ-BG8HpjzGWb-70" target="CA8DIJyEQ-BG8HpjzGWb-73" edge="1">
          <mxGeometry relative="1" as="geometry">
            <mxPoint x="570" y="720" as="targetPoint" />
            <Array as="points">
              <mxPoint x="700" y="730" />
              <mxPoint x="700" y="730" />
            </Array>
          </mxGeometry>
        </mxCell>
        <mxCell id="CA8DIJyEQ-BG8HpjzGWb-75" style="edgeStyle=orthogonalEdgeStyle;rounded=0;orthogonalLoop=1;jettySize=auto;html=1;endArrow=none;endFill=0;" parent="1" source="CA8DIJyEQ-BG8HpjzGWb-70" target="CA8DIJyEQ-BG8HpjzGWb-76" edge="1">
          <mxGeometry relative="1" as="geometry">
            <mxPoint x="1130" y="730" as="targetPoint" />
          </mxGeometry>
        </mxCell>
        <mxCell id="twbjdaluW3R16mWwh6AZ-20" style="edgeStyle=orthogonalEdgeStyle;rounded=0;orthogonalLoop=1;jettySize=auto;html=1;endArrow=oval;endFill=0;exitX=1;exitY=0.75;exitDx=0;exitDy=0;" parent="1" source="CA8DIJyEQ-BG8HpjzGWb-70" edge="1">
          <mxGeometry relative="1" as="geometry">
            <mxPoint x="1092" y="740" as="targetPoint" />
          </mxGeometry>
        </mxCell>
        <mxCell id="twbjdaluW3R16mWwh6AZ-26" style="edgeStyle=orthogonalEdgeStyle;rounded=0;orthogonalLoop=1;jettySize=auto;html=1;endArrow=oval;endFill=0;" parent="1" edge="1">
          <mxGeometry relative="1" as="geometry">
            <mxPoint x="1092" y="720" as="targetPoint" />
            <mxPoint x="1068" y="720" as="sourcePoint" />
          </mxGeometry>
        </mxCell>
        <mxCell id="CA8DIJyEQ-BG8HpjzGWb-70" value="Visualizzazione" style="rounded=0;whiteSpace=wrap;html=1;fillColor=#dae8fc;strokeColor=#6c8ebf;" parent="1" vertex="1">
          <mxGeometry x="962.5" y="710" width="105" height="40" as="geometry" />
        </mxCell>
        <mxCell id="CA8DIJyEQ-BG8HpjzGWb-74" style="edgeStyle=orthogonalEdgeStyle;rounded=0;orthogonalLoop=1;jettySize=auto;html=1;entryX=0.25;entryY=1;entryDx=0;entryDy=0;exitX=0.5;exitY=0;exitDx=0;exitDy=0;endArrow=none;endFill=0;" parent="1" source="CA8DIJyEQ-BG8HpjzGWb-73" target="CA8DIJyEQ-BG8HpjzGWb-14" edge="1">
          <mxGeometry relative="1" as="geometry">
            <mxPoint x="410" y="230" as="targetPoint" />
            <Array as="points">
              <mxPoint x="139" y="228" />
              <mxPoint x="445" y="228" />
              <mxPoint x="445" y="150" />
              <mxPoint x="446" y="150" />
            </Array>
          </mxGeometry>
        </mxCell>
        <mxCell id="CA8DIJyEQ-BG8HpjzGWb-73" value="Di" style="rhombus;whiteSpace=wrap;html=1;fillColor=#dae8fc;strokeColor=#6c8ebf;" parent="1" vertex="1">
          <mxGeometry x="90" y="700" width="98.12" height="60" as="geometry" />
        </mxCell>
        <mxCell id="CA8DIJyEQ-BG8HpjzGWb-77" style="edgeStyle=orthogonalEdgeStyle;rounded=0;orthogonalLoop=1;jettySize=auto;html=1;endArrow=none;endFill=0;" parent="1" source="CA8DIJyEQ-BG8HpjzGWb-76" target="CA8DIJyEQ-BG8HpjzGWb-78" edge="1">
          <mxGeometry relative="1" as="geometry">
            <mxPoint x="1015" y="940" as="targetPoint" />
          </mxGeometry>
        </mxCell>
        <mxCell id="CA8DIJyEQ-BG8HpjzGWb-76" value="Utilizzo di" style="rhombus;whiteSpace=wrap;html=1;fillColor=#dae8fc;strokeColor=#6c8ebf;" parent="1" vertex="1">
          <mxGeometry x="967.5" y="810" width="95" height="60" as="geometry" />
        </mxCell>
        <mxCell id="CA8DIJyEQ-BG8HpjzGWb-83" style="edgeStyle=orthogonalEdgeStyle;rounded=0;orthogonalLoop=1;jettySize=auto;html=1;exitX=0.5;exitY=1;exitDx=0;exitDy=0;endArrow=none;endFill=0;" parent="1" source="CA8DIJyEQ-BG8HpjzGWb-78" target="CA8DIJyEQ-BG8HpjzGWb-84" edge="1">
          <mxGeometry relative="1" as="geometry">
            <mxPoint x="40" y="490" as="targetPoint" />
            <Array as="points">
              <mxPoint x="1019" y="996" />
              <mxPoint x="84" y="996" />
              <mxPoint x="84" y="1008" />
              <mxPoint x="60" y="1008" />
              <mxPoint x="60" y="996" />
              <mxPoint x="40" y="996" />
            </Array>
          </mxGeometry>
        </mxCell>
        <mxCell id="twbjdaluW3R16mWwh6AZ-29" style="edgeStyle=orthogonalEdgeStyle;rounded=0;orthogonalLoop=1;jettySize=auto;html=1;endArrow=oval;endFill=0;exitX=1.011;exitY=0.073;exitDx=0;exitDy=0;exitPerimeter=0;" parent="1" source="CA8DIJyEQ-BG8HpjzGWb-78" edge="1">
          <mxGeometry relative="1" as="geometry">
            <mxPoint x="1116" y="924" as="targetPoint" />
          </mxGeometry>
        </mxCell>
        <mxCell id="twbjdaluW3R16mWwh6AZ-31" style="edgeStyle=orthogonalEdgeStyle;rounded=0;orthogonalLoop=1;jettySize=auto;html=1;exitX=0.984;exitY=0.245;exitDx=0;exitDy=0;exitPerimeter=0;endArrow=oval;endFill=1;" parent="1" source="CA8DIJyEQ-BG8HpjzGWb-78" edge="1">
          <mxGeometry relative="1" as="geometry">
            <mxPoint x="1116" y="936" as="targetPoint" />
          </mxGeometry>
        </mxCell>
        <mxCell id="twbjdaluW3R16mWwh6AZ-34" style="edgeStyle=orthogonalEdgeStyle;rounded=0;orthogonalLoop=1;jettySize=auto;html=1;endArrow=oval;endFill=0;" parent="1" source="CA8DIJyEQ-BG8HpjzGWb-78" edge="1">
          <mxGeometry relative="1" as="geometry">
            <mxPoint x="1116" y="952" as="targetPoint" />
          </mxGeometry>
        </mxCell>
        <mxCell id="twbjdaluW3R16mWwh6AZ-46" style="edgeStyle=orthogonalEdgeStyle;rounded=0;orthogonalLoop=1;jettySize=auto;html=1;exitX=1.002;exitY=0.709;exitDx=0;exitDy=0;exitPerimeter=0;endArrow=oval;endFill=0;" parent="1" source="CA8DIJyEQ-BG8HpjzGWb-78" target="twbjdaluW3R16mWwh6AZ-47" edge="1">
          <mxGeometry relative="1" as="geometry">
            <mxPoint x="1116" y="972" as="targetPoint" />
            <Array as="points">
              <mxPoint x="1080" y="967" />
            </Array>
          </mxGeometry>
        </mxCell>
        <mxCell id="nLwUZ7-GpoZsQczw0JLD-100" style="edgeStyle=orthogonalEdgeStyle;rounded=0;orthogonalLoop=1;jettySize=auto;html=1;endArrow=oval;endFill=0;" edge="1" parent="1" source="CA8DIJyEQ-BG8HpjzGWb-78">
          <mxGeometry relative="1" as="geometry">
            <mxPoint x="912" y="952" as="targetPoint" />
          </mxGeometry>
        </mxCell>
        <mxCell id="CA8DIJyEQ-BG8HpjzGWb-78" value="Server" style="rounded=0;whiteSpace=wrap;html=1;fillColor=#dae8fc;strokeColor=#6c8ebf;" parent="1" vertex="1">
          <mxGeometry x="957.5" y="920" width="122.5" height="64" as="geometry" />
        </mxCell>
        <mxCell id="twbjdaluW3R16mWwh6AZ-42" style="edgeStyle=orthogonalEdgeStyle;rounded=0;orthogonalLoop=1;jettySize=auto;html=1;exitX=0;exitY=0.25;exitDx=0;exitDy=0;endArrow=oval;endFill=0;" parent="1" target="twbjdaluW3R16mWwh6AZ-39" edge="1">
          <mxGeometry relative="1" as="geometry">
            <mxPoint x="956" y="927.125" as="sourcePoint" />
          </mxGeometry>
        </mxCell>
        <mxCell id="CA8DIJyEQ-BG8HpjzGWb-85" style="edgeStyle=orthogonalEdgeStyle;rounded=0;orthogonalLoop=1;jettySize=auto;html=1;endArrow=none;endFill=0;" parent="1" source="CA8DIJyEQ-BG8HpjzGWb-84" target="CA8DIJyEQ-BG8HpjzGWb-14" edge="1">
          <mxGeometry relative="1" as="geometry">
            <mxPoint x="240" y="200" as="targetPoint" />
            <Array as="points">
              <mxPoint x="40" y="340" />
              <mxPoint x="110" y="340" />
              <mxPoint x="110" y="200" />
              <mxPoint x="430" y="200" />
            </Array>
          </mxGeometry>
        </mxCell>
        <mxCell id="CA8DIJyEQ-BG8HpjzGWb-84" value="Cache" style="rhombus;whiteSpace=wrap;html=1;fillColor=#dae8fc;strokeColor=#6c8ebf;" parent="1" vertex="1">
          <mxGeometry y="460" width="80" height="50" as="geometry" />
        </mxCell>
        <mxCell id="X5VYXHr65bgpFRcitx1M-1" value="(1,n)" style="text;html=1;align=center;verticalAlign=middle;resizable=0;points=[];autosize=1;strokeColor=none;fillColor=none;" parent="1" vertex="1">
          <mxGeometry x="504.38" y="310" width="50" height="30" as="geometry" />
        </mxCell>
        <mxCell id="X5VYXHr65bgpFRcitx1M-2" value="(1,1)" style="text;html=1;align=center;verticalAlign=middle;resizable=0;points=[];autosize=1;strokeColor=none;fillColor=none;" parent="1" vertex="1">
          <mxGeometry x="467.5" y="142" width="50" height="30" as="geometry" />
        </mxCell>
        <mxCell id="X5VYXHr65bgpFRcitx1M-9" value="(1,n)" style="text;html=1;align=center;verticalAlign=middle;resizable=0;points=[];autosize=1;strokeColor=none;fillColor=none;" parent="1" vertex="1">
          <mxGeometry x="513.75" y="358" width="50" height="30" as="geometry" />
        </mxCell>
        <mxCell id="X5VYXHr65bgpFRcitx1M-10" value="(1,n)" style="text;html=1;align=center;verticalAlign=middle;resizable=0;points=[];autosize=1;strokeColor=none;fillColor=none;" parent="1" vertex="1">
          <mxGeometry x="720" y="368" width="50" height="30" as="geometry" />
        </mxCell>
        <mxCell id="X5VYXHr65bgpFRcitx1M-11" value="(0,n)" style="text;html=1;align=center;verticalAlign=middle;resizable=0;points=[];autosize=1;strokeColor=none;fillColor=none;" parent="1" vertex="1">
          <mxGeometry x="795" y="388" width="50" height="30" as="geometry" />
        </mxCell>
        <mxCell id="X5VYXHr65bgpFRcitx1M-12" value="(0,n)" style="text;html=1;align=center;verticalAlign=middle;resizable=0;points=[];autosize=1;strokeColor=none;fillColor=none;" parent="1" vertex="1">
          <mxGeometry x="505" y="588" width="50" height="30" as="geometry" />
        </mxCell>
        <mxCell id="X5VYXHr65bgpFRcitx1M-13" value="(0,n)" style="text;html=1;align=center;verticalAlign=middle;resizable=0;points=[];autosize=1;strokeColor=none;fillColor=none;" parent="1" vertex="1">
          <mxGeometry x="465" y="560" width="50" height="30" as="geometry" />
        </mxCell>
        <mxCell id="X5VYXHr65bgpFRcitx1M-14" value="(0,n)" style="text;html=1;align=center;verticalAlign=middle;resizable=0;points=[];autosize=1;strokeColor=none;fillColor=none;" parent="1" vertex="1">
          <mxGeometry x="385" y="578" width="50" height="30" as="geometry" />
        </mxCell>
        <mxCell id="X5VYXHr65bgpFRcitx1M-15" value="(0,n)" style="text;html=1;align=center;verticalAlign=middle;resizable=0;points=[];autosize=1;strokeColor=none;fillColor=none;" parent="1" vertex="1">
          <mxGeometry x="440" y="390" width="50" height="30" as="geometry" />
        </mxCell>
        <mxCell id="X5VYXHr65bgpFRcitx1M-16" value="(1,1)" style="text;html=1;align=center;verticalAlign=middle;resizable=0;points=[];autosize=1;strokeColor=none;fillColor=none;" parent="1" vertex="1">
          <mxGeometry x="410" y="398" width="50" height="30" as="geometry" />
        </mxCell>
        <mxCell id="X5VYXHr65bgpFRcitx1M-17" value="(1,n)" style="text;html=1;align=center;verticalAlign=middle;resizable=0;points=[];autosize=1;strokeColor=none;fillColor=none;" parent="1" vertex="1">
          <mxGeometry x="235" y="568" width="50" height="30" as="geometry" />
        </mxCell>
        <mxCell id="X5VYXHr65bgpFRcitx1M-19" value="(1,n)" style="text;html=1;align=center;verticalAlign=middle;resizable=0;points=[];autosize=1;strokeColor=none;fillColor=none;" parent="1" vertex="1">
          <mxGeometry x="520" y="330" width="50" height="30" as="geometry" />
        </mxCell>
        <mxCell id="X5VYXHr65bgpFRcitx1M-23" value="(1,n)" style="text;html=1;align=center;verticalAlign=middle;resizable=0;points=[];autosize=1;strokeColor=none;fillColor=none;" parent="1" vertex="1">
          <mxGeometry x="919.75" y="278.5" width="50" height="30" as="geometry" />
        </mxCell>
        <mxCell id="X5VYXHr65bgpFRcitx1M-24" value="(0,n)" style="text;html=1;align=center;verticalAlign=middle;resizable=0;points=[];autosize=1;strokeColor=none;fillColor=none;" parent="1" vertex="1">
          <mxGeometry x="1057.5" y="180" width="50" height="30" as="geometry" />
        </mxCell>
        <mxCell id="X5VYXHr65bgpFRcitx1M-25" value="(0,n)" style="text;html=1;align=center;verticalAlign=middle;resizable=0;points=[];autosize=1;strokeColor=none;fillColor=none;" parent="1" vertex="1">
          <mxGeometry x="1284" y="99.75" width="50" height="30" as="geometry" />
        </mxCell>
        <mxCell id="X5VYXHr65bgpFRcitx1M-28" value="(1,1)" style="text;html=1;align=center;verticalAlign=middle;resizable=0;points=[];autosize=1;strokeColor=none;fillColor=none;" parent="1" vertex="1">
          <mxGeometry x="1380" y="375" width="50" height="30" as="geometry" />
        </mxCell>
        <mxCell id="X5VYXHr65bgpFRcitx1M-29" value="(0,n)" style="text;html=1;align=center;verticalAlign=middle;resizable=0;points=[];autosize=1;strokeColor=none;fillColor=none;" parent="1" vertex="1">
          <mxGeometry x="1310" y="268" width="50" height="30" as="geometry" />
        </mxCell>
        <mxCell id="X5VYXHr65bgpFRcitx1M-30" value="(0,n)" style="text;html=1;align=center;verticalAlign=middle;resizable=0;points=[];autosize=1;strokeColor=none;fillColor=none;" parent="1" vertex="1">
          <mxGeometry x="1100" y="228" width="50" height="30" as="geometry" />
        </mxCell>
        <mxCell id="X5VYXHr65bgpFRcitx1M-31" value="(1,1)" style="text;html=1;align=center;verticalAlign=middle;resizable=0;points=[];autosize=1;strokeColor=none;fillColor=none;" parent="1" vertex="1">
          <mxGeometry x="1225" y="230" width="50" height="30" as="geometry" />
        </mxCell>
        <mxCell id="X5VYXHr65bgpFRcitx1M-32" value="(0,n)" style="text;html=1;align=center;verticalAlign=middle;resizable=0;points=[];autosize=1;strokeColor=none;fillColor=none;" parent="1" vertex="1">
          <mxGeometry x="1022.5" y="285" width="50" height="30" as="geometry" />
        </mxCell>
        <mxCell id="X5VYXHr65bgpFRcitx1M-33" value="(1,1)" style="text;html=1;align=center;verticalAlign=middle;resizable=0;points=[];autosize=1;strokeColor=none;fillColor=none;" parent="1" vertex="1">
          <mxGeometry x="1005" y="465" width="50" height="30" as="geometry" />
        </mxCell>
        <mxCell id="X5VYXHr65bgpFRcitx1M-34" value="(1,1)" style="text;html=1;align=center;verticalAlign=middle;resizable=0;points=[];autosize=1;strokeColor=none;fillColor=none;" parent="1" vertex="1">
          <mxGeometry x="1057.5" y="500" width="50" height="30" as="geometry" />
        </mxCell>
        <mxCell id="X5VYXHr65bgpFRcitx1M-35" value="(0,n)" style="text;html=1;align=center;verticalAlign=middle;resizable=0;points=[];autosize=1;strokeColor=none;fillColor=none;" parent="1" vertex="1">
          <mxGeometry x="1305" y="500" width="50" height="30" as="geometry" />
        </mxCell>
        <mxCell id="X5VYXHr65bgpFRcitx1M-36" value="(0,n)" style="text;html=1;align=center;verticalAlign=middle;resizable=0;points=[];autosize=1;strokeColor=none;fillColor=none;" parent="1" vertex="1">
          <mxGeometry x="971.25" y="540" width="50" height="30" as="geometry" />
        </mxCell>
        <mxCell id="X5VYXHr65bgpFRcitx1M-37" value="(1,1)" style="text;html=1;align=center;verticalAlign=middle;resizable=0;points=[];autosize=1;strokeColor=none;fillColor=none;" parent="1" vertex="1">
          <mxGeometry x="1002.5" y="688" width="50" height="30" as="geometry" />
        </mxCell>
        <mxCell id="X5VYXHr65bgpFRcitx1M-38" value="(1,1)" style="text;html=1;align=center;verticalAlign=middle;resizable=0;points=[];autosize=1;strokeColor=none;fillColor=none;" parent="1" vertex="1">
          <mxGeometry x="915" y="698" width="50" height="30" as="geometry" />
        </mxCell>
        <mxCell id="X5VYXHr65bgpFRcitx1M-39" value="(1,1)" style="text;html=1;align=center;verticalAlign=middle;resizable=0;points=[];autosize=1;strokeColor=none;fillColor=none;" parent="1" vertex="1">
          <mxGeometry x="1006" y="751" width="48" height="24" as="geometry" />
        </mxCell>
        <mxCell id="X5VYXHr65bgpFRcitx1M-40" value="(0,n)" style="text;html=1;align=center;verticalAlign=middle;resizable=0;points=[];autosize=1;strokeColor=none;fillColor=none;" parent="1" vertex="1">
          <mxGeometry x="1007.5" y="887.5" width="50" height="30" as="geometry" />
        </mxCell>
        <mxCell id="X5VYXHr65bgpFRcitx1M-43" value="(0,n)" style="text;html=1;align=center;verticalAlign=middle;resizable=0;points=[];autosize=1;strokeColor=none;fillColor=none;" parent="1" vertex="1">
          <mxGeometry x="1007.5" y="984" width="50" height="30" as="geometry" />
        </mxCell>
        <mxCell id="X5VYXHr65bgpFRcitx1M-44" value="(0,n)" style="text;html=1;align=center;verticalAlign=middle;resizable=0;points=[];autosize=1;strokeColor=none;fillColor=none;" parent="1" vertex="1">
          <mxGeometry x="435" y="160" width="50" height="30" as="geometry" />
        </mxCell>
        <mxCell id="X5VYXHr65bgpFRcitx1M-45" value="(0,n)" style="text;html=1;align=center;verticalAlign=middle;resizable=0;points=[];autosize=1;strokeColor=none;fillColor=none;" parent="1" vertex="1">
          <mxGeometry x="385" y="158" width="50" height="30" as="geometry" />
        </mxCell>
        <mxCell id="X5VYXHr65bgpFRcitx1M-49" value="Titolo" style="text;html=1;align=center;verticalAlign=middle;resizable=0;points=[];autosize=1;strokeColor=none;fillColor=none;" parent="1" vertex="1">
          <mxGeometry x="330" y="340" width="50" height="30" as="geometry" />
        </mxCell>
        <mxCell id="X5VYXHr65bgpFRcitx1M-51" value="Descrizione" style="text;html=1;align=center;verticalAlign=middle;resizable=0;points=[];autosize=1;strokeColor=none;fillColor=none;" parent="1" vertex="1">
          <mxGeometry x="290" y="358" width="90" height="30" as="geometry" />
        </mxCell>
        <mxCell id="X5VYXHr65bgpFRcitx1M-54" value="Durata" style="text;html=1;align=center;verticalAlign=middle;resizable=0;points=[];autosize=1;strokeColor=none;fillColor=none;" parent="1" vertex="1">
          <mxGeometry x="365" y="405" width="60" height="30" as="geometry" />
        </mxCell>
        <mxCell id="X5VYXHr65bgpFRcitx1M-58" value="Codice" style="text;html=1;align=center;verticalAlign=middle;resizable=0;points=[];autosize=1;strokeColor=none;fillColor=none;" parent="1" vertex="1">
          <mxGeometry x="320" y="328" width="60" height="30" as="geometry" />
        </mxCell>
        <mxCell id="X5VYXHr65bgpFRcitx1M-62" value="Paese di Produzione" style="text;html=1;align=center;verticalAlign=middle;resizable=0;points=[];autosize=1;strokeColor=none;fillColor=none;" parent="1" vertex="1">
          <mxGeometry x="250" y="377.5" width="130" height="30" as="geometry" />
        </mxCell>
        <mxCell id="X5VYXHr65bgpFRcitx1M-64" value="Rating" style="text;html=1;align=center;verticalAlign=middle;resizable=0;points=[];autosize=1;strokeColor=none;fillColor=none;" parent="1" vertex="1">
          <mxGeometry x="396" y="283" width="60" height="30" as="geometry" />
        </mxCell>
        <mxCell id="X5VYXHr65bgpFRcitx1M-79" value="Tipo" style="text;html=1;align=center;verticalAlign=middle;resizable=0;points=[];autosize=1;strokeColor=none;fillColor=none;" parent="1" vertex="1">
          <mxGeometry x="415" y="658" width="50" height="30" as="geometry" />
        </mxCell>
        <mxCell id="X5VYXHr65bgpFRcitx1M-81" value="Valore" style="text;html=1;align=center;verticalAlign=middle;resizable=0;points=[];autosize=1;strokeColor=none;fillColor=none;" parent="1" vertex="1">
          <mxGeometry x="470" y="658" width="60" height="30" as="geometry" />
        </mxCell>
        <mxCell id="X5VYXHr65bgpFRcitx1M-83" value="Codice" style="text;html=1;align=center;verticalAlign=middle;resizable=0;points=[];autosize=1;strokeColor=none;fillColor=none;" parent="1" vertex="1">
          <mxGeometry x="215" y="650" width="60" height="30" as="geometry" />
        </mxCell>
        <mxCell id="X5VYXHr65bgpFRcitx1M-85" value="Codice" style="text;html=1;align=center;verticalAlign=middle;resizable=0;points=[];autosize=1;strokeColor=none;fillColor=none;" parent="1" vertex="1">
          <mxGeometry x="780" y="298" width="60" height="30" as="geometry" />
        </mxCell>
        <mxCell id="X5VYXHr65bgpFRcitx1M-87" value="Nome" style="text;html=1;align=center;verticalAlign=middle;resizable=0;points=[];autosize=1;strokeColor=none;fillColor=none;" parent="1" vertex="1">
          <mxGeometry x="870" y="340" width="60" height="30" as="geometry" />
        </mxCell>
        <mxCell id="X5VYXHr65bgpFRcitx1M-89" value="Cognome" style="text;html=1;align=center;verticalAlign=middle;resizable=0;points=[];autosize=1;strokeColor=none;fillColor=none;" parent="1" vertex="1">
          <mxGeometry x="870" y="365" width="80" height="30" as="geometry" />
        </mxCell>
        <mxCell id="X5VYXHr65bgpFRcitx1M-93" value="Nome" style="text;html=1;align=center;verticalAlign=middle;resizable=0;points=[];autosize=1;strokeColor=none;fillColor=none;" parent="1" vertex="1">
          <mxGeometry x="128.12" y="585" width="60" height="30" as="geometry" />
        </mxCell>
        <mxCell id="X5VYXHr65bgpFRcitx1M-94" value="Cognome" style="text;html=1;align=center;verticalAlign=middle;resizable=0;points=[];autosize=1;strokeColor=none;fillColor=none;" parent="1" vertex="1">
          <mxGeometry x="108.12" y="608" width="80" height="30" as="geometry" />
        </mxCell>
        <mxCell id="X5VYXHr65bgpFRcitx1M-96" value="Valore" style="text;html=1;align=center;verticalAlign=middle;resizable=0;points=[];autosize=1;strokeColor=none;fillColor=none;" parent="1" vertex="1">
          <mxGeometry x="775" y="260" width="60" height="30" as="geometry" />
        </mxCell>
        <mxCell id="X5VYXHr65bgpFRcitx1M-99" value="Codice" style="text;html=1;align=center;verticalAlign=middle;resizable=0;points=[];autosize=1;strokeColor=none;fillColor=none;" parent="1" vertex="1">
          <mxGeometry x="1012.5" y="163.75" width="60" height="30" as="geometry" />
        </mxCell>
        <mxCell id="X5VYXHr65bgpFRcitx1M-104" style="edgeStyle=orthogonalEdgeStyle;rounded=0;orthogonalLoop=1;jettySize=auto;html=1;endArrow=oval;endFill=0;" parent="1" source="X5VYXHr65bgpFRcitx1M-103" edge="1">
          <mxGeometry relative="1" as="geometry">
            <mxPoint x="991" y="110" as="targetPoint" />
          </mxGeometry>
        </mxCell>
        <mxCell id="X5VYXHr65bgpFRcitx1M-106" style="edgeStyle=orthogonalEdgeStyle;rounded=0;orthogonalLoop=1;jettySize=auto;html=1;exitX=0.798;exitY=0.091;exitDx=0;exitDy=0;exitPerimeter=0;endArrow=oval;endFill=0;entryX=0.396;entryY=0.953;entryDx=0;entryDy=0;entryPerimeter=0;" parent="1" source="X5VYXHr65bgpFRcitx1M-103" target="X5VYXHr65bgpFRcitx1M-107" edge="1">
          <mxGeometry relative="1" as="geometry">
            <mxPoint x="1030" y="130" as="targetPoint" />
          </mxGeometry>
        </mxCell>
        <mxCell id="X5VYXHr65bgpFRcitx1M-108" style="edgeStyle=orthogonalEdgeStyle;rounded=0;orthogonalLoop=1;jettySize=auto;html=1;endArrow=oval;endFill=0;" parent="1" source="X5VYXHr65bgpFRcitx1M-103" edge="1">
          <mxGeometry relative="1" as="geometry">
            <mxPoint x="920" y="150.875" as="targetPoint" />
          </mxGeometry>
        </mxCell>
        <mxCell id="X5VYXHr65bgpFRcitx1M-110" style="edgeStyle=orthogonalEdgeStyle;rounded=0;orthogonalLoop=1;jettySize=auto;html=1;exitX=0.158;exitY=0.081;exitDx=0;exitDy=0;exitPerimeter=0;endArrow=oval;endFill=0;" parent="1" source="X5VYXHr65bgpFRcitx1M-103" edge="1">
          <mxGeometry relative="1" as="geometry">
            <mxPoint x="940" y="120" as="targetPoint" />
          </mxGeometry>
        </mxCell>
        <mxCell id="X5VYXHr65bgpFRcitx1M-103" value="Informazioni Personali" style="ellipse;whiteSpace=wrap;html=1;" parent="1" vertex="1">
          <mxGeometry x="950" y="130" width="82.5" height="41.75" as="geometry" />
        </mxCell>
        <mxCell id="X5VYXHr65bgpFRcitx1M-105" value="Nome" style="text;html=1;align=center;verticalAlign=middle;resizable=0;points=[];autosize=1;strokeColor=none;fillColor=none;" parent="1" vertex="1">
          <mxGeometry x="961.25" y="85" width="60" height="30" as="geometry" />
        </mxCell>
        <mxCell id="X5VYXHr65bgpFRcitx1M-107" value="Cognome" style="text;html=1;align=center;verticalAlign=middle;resizable=0;points=[];autosize=1;strokeColor=none;fillColor=none;" parent="1" vertex="1">
          <mxGeometry x="1002.5" y="88" width="80" height="30" as="geometry" />
        </mxCell>
        <mxCell id="X5VYXHr65bgpFRcitx1M-109" value="Email" style="text;html=1;align=center;verticalAlign=middle;resizable=0;points=[];autosize=1;strokeColor=none;fillColor=none;" parent="1" vertex="1">
          <mxGeometry x="872.5" y="133.75" width="50" height="30" as="geometry" />
        </mxCell>
        <mxCell id="X5VYXHr65bgpFRcitx1M-111" value="Password" style="text;html=1;align=center;verticalAlign=middle;resizable=0;points=[];autosize=1;strokeColor=none;fillColor=default;" parent="1" vertex="1">
          <mxGeometry x="892.5" y="96.25" width="80" height="30" as="geometry" />
        </mxCell>
        <mxCell id="TzTqIZtNaXJvueZtooWY-2" value="Inizio" style="text;html=1;align=center;verticalAlign=middle;resizable=0;points=[];autosize=1;strokeColor=none;fillColor=none;" parent="1" vertex="1">
          <mxGeometry x="880" y="490" width="50" height="30" as="geometry" />
        </mxCell>
        <mxCell id="TzTqIZtNaXJvueZtooWY-4" value="Fine" style="text;html=1;align=center;verticalAlign=middle;resizable=0;points=[];autosize=1;strokeColor=none;fillColor=none;" parent="1" vertex="1">
          <mxGeometry x="880" y="510" width="50" height="30" as="geometry" />
        </mxCell>
        <mxCell id="TzTqIZtNaXJvueZtooWY-5" value="" style="edgeStyle=none;orthogonalLoop=1;jettySize=auto;html=1;rounded=0;endArrow=none;endFill=0;" parent="1" edge="1">
          <mxGeometry width="100" relative="1" as="geometry">
            <mxPoint x="950" y="540" as="sourcePoint" />
            <mxPoint x="1040" y="490" as="targetPoint" />
            <Array as="points">
              <mxPoint x="950" y="490" />
              <mxPoint x="990" y="490" />
            </Array>
          </mxGeometry>
        </mxCell>
        <mxCell id="TzTqIZtNaXJvueZtooWY-8" value="IP" style="text;html=1;align=center;verticalAlign=middle;resizable=0;points=[];autosize=1;strokeColor=none;fillColor=none;" parent="1" vertex="1">
          <mxGeometry x="1042.5" y="450" width="30" height="30" as="geometry" />
        </mxCell>
        <mxCell id="TzTqIZtNaXJvueZtooWY-9" value="Tipo" style="text;html=1;align=center;verticalAlign=middle;resizable=0;points=[];autosize=1;strokeColor=none;fillColor=none;" parent="1" vertex="1">
          <mxGeometry x="1350" y="568" width="50" height="30" as="geometry" />
        </mxCell>
        <mxCell id="TzTqIZtNaXJvueZtooWY-14" value="Tipo" style="text;html=1;align=center;verticalAlign=middle;resizable=0;points=[];autosize=1;strokeColor=none;fillColor=none;" parent="1" vertex="1">
          <mxGeometry x="1314" y="23.5" width="50" height="30" as="geometry" />
        </mxCell>
        <mxCell id="TzTqIZtNaXJvueZtooWY-16" value="(0,n)" style="text;html=1;align=center;verticalAlign=middle;resizable=0;points=[];autosize=1;strokeColor=none;fillColor=none;" parent="1" vertex="1">
          <mxGeometry x="1364" y="69.75" width="50" height="30" as="geometry" />
        </mxCell>
        <mxCell id="TzTqIZtNaXJvueZtooWY-17" value="Contenuti" style="text;html=1;align=center;verticalAlign=middle;resizable=0;points=[];autosize=1;strokeColor=none;fillColor=none;" parent="1" vertex="1">
          <mxGeometry x="1344" y="21.5" width="70" height="30" as="geometry" />
        </mxCell>
        <mxCell id="TzTqIZtNaXJvueZtooWY-19" value="Download" style="text;html=1;align=center;verticalAlign=middle;resizable=0;points=[];autosize=1;strokeColor=none;fillColor=none;" parent="1" vertex="1">
          <mxGeometry x="1504" y="83.5" width="80" height="30" as="geometry" />
        </mxCell>
        <mxCell id="TzTqIZtNaXJvueZtooWY-22" value="Massime Connessioni" style="text;html=1;align=center;verticalAlign=middle;resizable=0;points=[];autosize=1;strokeColor=none;fillColor=none;" parent="1" vertex="1">
          <mxGeometry x="1504" y="101.5" width="140" height="30" as="geometry" />
        </mxCell>
        <mxCell id="TzTqIZtNaXJvueZtooWY-27" value="Gb Massimi" style="text;html=1;align=center;verticalAlign=middle;resizable=0;points=[];autosize=1;strokeColor=none;fillColor=none;" parent="1" vertex="1">
          <mxGeometry x="1440" y="23.5" width="90" height="30" as="geometry" />
        </mxCell>
        <mxCell id="TzTqIZtNaXJvueZtooWY-31" value="Restrizioni Geografiche" style="text;html=1;align=center;verticalAlign=middle;resizable=0;points=[];autosize=1;strokeColor=none;fillColor=none;" parent="1" vertex="1">
          <mxGeometry x="1504" y="137.25" width="150" height="30" as="geometry" />
        </mxCell>
        <mxCell id="TzTqIZtNaXJvueZtooWY-39" value="(0,1)" style="text;html=1;align=center;verticalAlign=middle;resizable=0;points=[];autosize=1;strokeColor=none;fillColor=none;" parent="1" vertex="1">
          <mxGeometry x="1449" y="63.5" width="50" height="30" as="geometry" />
        </mxCell>
        <mxCell id="TzTqIZtNaXJvueZtooWY-41" value="Durata" style="text;html=1;align=center;verticalAlign=middle;resizable=0;points=[];autosize=1;strokeColor=none;fillColor=none;" parent="1" vertex="1">
          <mxGeometry x="1400" y="20" width="60" height="30" as="geometry" />
        </mxCell>
        <mxCell id="TzTqIZtNaXJvueZtooWY-47" value="Tariffa Mensile" style="text;html=1;align=center;verticalAlign=middle;resizable=0;points=[];autosize=1;strokeColor=none;fillColor=none;" parent="1" vertex="1">
          <mxGeometry x="1504" y="118.5" width="100" height="30" as="geometry" />
        </mxCell>
        <mxCell id="TzTqIZtNaXJvueZtooWY-54" value="Data Emissione" style="text;html=1;align=center;verticalAlign=middle;resizable=0;points=[];autosize=1;strokeColor=none;fillColor=none;" parent="1" vertex="1">
          <mxGeometry x="1494" y="447" width="110" height="30" as="geometry" />
        </mxCell>
        <mxCell id="TzTqIZtNaXJvueZtooWY-56" value="Tariffa" style="text;html=1;align=center;verticalAlign=middle;resizable=0;points=[];autosize=1;strokeColor=none;fillColor=none;" parent="1" vertex="1">
          <mxGeometry x="1573" y="395" width="60" height="30" as="geometry" />
        </mxCell>
        <mxCell id="TzTqIZtNaXJvueZtooWY-60" value="Data" style="text;html=1;align=center;verticalAlign=middle;resizable=0;points=[];autosize=1;strokeColor=none;fillColor=none;rotation=0;" parent="1" vertex="1">
          <mxGeometry x="1310" y="360" width="50" height="30" as="geometry" />
        </mxCell>
        <mxCell id="TzTqIZtNaXJvueZtooWY-62" value="Inizio Abbonamento" style="text;html=1;align=center;verticalAlign=middle;resizable=0;points=[];autosize=1;strokeColor=none;fillColor=none;" parent="1" vertex="1">
          <mxGeometry x="1125" y="25" width="130" height="30" as="geometry" />
        </mxCell>
        <mxCell id="TzTqIZtNaXJvueZtooWY-67" value="Scadenza" style="text;html=1;align=center;verticalAlign=middle;resizable=0;points=[];autosize=1;strokeColor=none;fillColor=none;" parent="1" vertex="1">
          <mxGeometry x="1420" y="450" width="80" height="30" as="geometry" />
        </mxCell>
        <mxCell id="twbjdaluW3R16mWwh6AZ-3" style="edgeStyle=orthogonalEdgeStyle;rounded=0;orthogonalLoop=1;jettySize=auto;html=1;entryX=0.881;entryY=0.987;entryDx=0;entryDy=0;entryPerimeter=0;endArrow=none;endFill=0;" parent="1" source="twbjdaluW3R16mWwh6AZ-2" target="CA8DIJyEQ-BG8HpjzGWb-37" edge="1">
          <mxGeometry relative="1" as="geometry" />
        </mxCell>
        <mxCell id="twbjdaluW3R16mWwh6AZ-7" style="edgeStyle=orthogonalEdgeStyle;rounded=0;orthogonalLoop=1;jettySize=auto;html=1;endArrow=oval;endFill=0;" parent="1" source="twbjdaluW3R16mWwh6AZ-2" edge="1">
          <mxGeometry relative="1" as="geometry">
            <mxPoint x="1179" y="456" as="targetPoint" />
          </mxGeometry>
        </mxCell>
        <mxCell id="twbjdaluW3R16mWwh6AZ-2" value="UtenteFattura" style="rhombus;whiteSpace=wrap;html=1;fillColor=#f8cecc;strokeColor=#b85450;" parent="1" vertex="1">
          <mxGeometry x="1133" y="372" width="92" height="56" as="geometry" />
        </mxCell>
        <mxCell id="twbjdaluW3R16mWwh6AZ-4" value="(0,1)" style="text;html=1;align=center;verticalAlign=middle;resizable=0;points=[];autosize=1;strokeColor=none;fillColor=none;" parent="1" vertex="1">
          <mxGeometry x="1406" y="350" width="48" height="24" as="geometry" />
        </mxCell>
        <mxCell id="twbjdaluW3R16mWwh6AZ-5" value="( 0,n)" style="text;html=1;align=center;verticalAlign=middle;resizable=0;points=[];autosize=1;strokeColor=none;fillColor=none;" parent="1" vertex="1">
          <mxGeometry x="1065" y="286" width="60" height="24" as="geometry" />
        </mxCell>
        <mxCell id="twbjdaluW3R16mWwh6AZ-8" value="Pagata" style="text;html=1;align=center;verticalAlign=middle;resizable=0;points=[];autosize=1;fontStyle=1;horizontal=1;fontColor=#FF6666;" parent="1" vertex="1">
          <mxGeometry x="1142" y="457" width="60" height="24" as="geometry" />
        </mxCell>
        <mxCell id="twbjdaluW3R16mWwh6AZ-10" value="Numero Carta" style="text;html=1;align=center;verticalAlign=middle;resizable=0;points=[];autosize=1;strokeColor=none;fillColor=none;" parent="1" vertex="1">
          <mxGeometry x="1238" y="178" width="96" height="24" as="geometry" />
        </mxCell>
        <mxCell id="twbjdaluW3R16mWwh6AZ-14" value="Scadenza" style="text;html=1;align=center;verticalAlign=middle;resizable=0;points=[];autosize=1;strokeColor=none;fillColor=none;" parent="1" vertex="1">
          <mxGeometry x="1208" y="283" width="84" height="24" as="geometry" />
        </mxCell>
        <mxCell id="twbjdaluW3R16mWwh6AZ-19" value="Inizio" style="text;html=1;align=center;verticalAlign=middle;resizable=0;points=[];autosize=1;strokeColor=none;fillColor=none;" parent="1" vertex="1">
          <mxGeometry x="1082.5" y="704" width="60" height="24" as="geometry" />
        </mxCell>
        <mxCell id="twbjdaluW3R16mWwh6AZ-21" value="Fine" style="text;html=1;align=center;verticalAlign=middle;resizable=0;points=[];autosize=1;strokeColor=none;fillColor=none;" parent="1" vertex="1">
          <mxGeometry x="1088.5" y="728" width="48" height="24" as="geometry" />
        </mxCell>
        <mxCell id="twbjdaluW3R16mWwh6AZ-28" value="" style="edgeStyle=none;orthogonalLoop=1;jettySize=auto;html=1;rounded=0;endArrow=oval;endFill=1;" parent="1" edge="1">
          <mxGeometry width="100" relative="1" as="geometry">
            <mxPoint x="1080" y="732" as="sourcePoint" />
            <mxPoint x="984" y="696" as="targetPoint" />
            <Array as="points">
              <mxPoint x="1080" y="696" />
              <mxPoint x="1032" y="696" />
            </Array>
          </mxGeometry>
        </mxCell>
        <mxCell id="twbjdaluW3R16mWwh6AZ-30" value="Longitudine" style="text;html=1;align=center;verticalAlign=middle;resizable=0;points=[];autosize=1;strokeColor=none;fillColor=none;" parent="1" vertex="1">
          <mxGeometry x="1101.5" y="908" width="96" height="24" as="geometry" />
        </mxCell>
        <mxCell id="twbjdaluW3R16mWwh6AZ-32" value="Identificatore" style="text;html=1;align=center;verticalAlign=middle;resizable=0;points=[];autosize=1;strokeColor=none;fillColor=none;" parent="1" vertex="1">
          <mxGeometry x="1106" y="925" width="96" height="24" as="geometry" />
        </mxCell>
        <mxCell id="twbjdaluW3R16mWwh6AZ-35" value="Larghezza di Banda" style="text;html=1;align=center;verticalAlign=middle;resizable=0;points=[];autosize=1;strokeColor=none;fillColor=none;" parent="1" vertex="1">
          <mxGeometry x="1109" y="940" width="132" height="24" as="geometry" />
        </mxCell>
        <mxCell id="twbjdaluW3R16mWwh6AZ-39" value="Banda attuale" style="text;html=1;align=center;verticalAlign=middle;resizable=0;points=[];autosize=1;strokeColor=none;fillColor=none;" parent="1" vertex="1">
          <mxGeometry x="823.75" y="915" width="96" height="24" as="geometry" />
        </mxCell>
        <mxCell id="twbjdaluW3R16mWwh6AZ-47" value="Capacità Massima" style="text;html=1;align=center;verticalAlign=middle;resizable=0;points=[];autosize=1;strokeColor=none;fillColor=none;" parent="1" vertex="1">
          <mxGeometry x="1115" y="955" width="120" height="24" as="geometry" />
        </mxCell>
        <mxCell id="nLwUZ7-GpoZsQczw0JLD-2" value="Codifica Video" style="rhombus;whiteSpace=wrap;html=1;fillColor=#d5e8d4;strokeColor=#82b366;" vertex="1" parent="1">
          <mxGeometry x="300" y="20" width="96" height="56" as="geometry" />
        </mxCell>
        <mxCell id="nLwUZ7-GpoZsQczw0JLD-3" style="edgeStyle=orthogonalEdgeStyle;rounded=0;orthogonalLoop=1;jettySize=auto;html=1;entryX=0.162;entryY=0.031;entryDx=0;entryDy=0;entryPerimeter=0;endArrow=none;endFill=0;" edge="1" parent="1" source="nLwUZ7-GpoZsQczw0JLD-2" target="CA8DIJyEQ-BG8HpjzGWb-14">
          <mxGeometry relative="1" as="geometry">
            <Array as="points">
              <mxPoint x="433" y="48" />
            </Array>
          </mxGeometry>
        </mxCell>
        <mxCell id="nLwUZ7-GpoZsQczw0JLD-5" value="Codifica audio" style="rhombus;whiteSpace=wrap;html=1;fillColor=#d5e8d4;strokeColor=#82b366;" vertex="1" parent="1">
          <mxGeometry x="285" y="119.25" width="87" height="52.5" as="geometry" />
        </mxCell>
        <mxCell id="nLwUZ7-GpoZsQczw0JLD-6" style="edgeStyle=orthogonalEdgeStyle;rounded=0;orthogonalLoop=1;jettySize=auto;html=1;entryX=0.003;entryY=0.863;entryDx=0;entryDy=0;entryPerimeter=0;endArrow=none;endFill=0;" edge="1" parent="1" source="nLwUZ7-GpoZsQczw0JLD-5" target="CA8DIJyEQ-BG8HpjzGWb-14">
          <mxGeometry relative="1" as="geometry">
            <Array as="points">
              <mxPoint x="392" y="146" />
              <mxPoint x="392" y="140" />
            </Array>
          </mxGeometry>
        </mxCell>
        <mxCell id="nLwUZ7-GpoZsQczw0JLD-7" value="(1,1)" style="text;html=1;align=center;verticalAlign=middle;resizable=0;points=[];autosize=1;strokeColor=none;fillColor=none;" vertex="1" parent="1">
          <mxGeometry x="427.5" y="59" width="48" height="24" as="geometry" />
        </mxCell>
        <mxCell id="nLwUZ7-GpoZsQczw0JLD-8" value="(1,1)" style="text;html=1;align=center;verticalAlign=middle;resizable=0;points=[];autosize=1;strokeColor=none;fillColor=none;" vertex="1" parent="1">
          <mxGeometry x="365" y="113.5" width="48" height="24" as="geometry" />
        </mxCell>
        <mxCell id="nLwUZ7-GpoZsQczw0JLD-9" value="(0,n)" style="text;html=1;align=center;verticalAlign=middle;resizable=0;points=[];autosize=1;strokeColor=none;fillColor=none;" vertex="1" parent="1">
          <mxGeometry x="200" y="121" width="48" height="24" as="geometry" />
        </mxCell>
        <mxCell id="nLwUZ7-GpoZsQczw0JLD-10" value="(0,n)" style="text;html=1;align=center;verticalAlign=middle;resizable=0;points=[];autosize=1;strokeColor=none;fillColor=none;" vertex="1" parent="1">
          <mxGeometry x="200" y="25" width="48" height="24" as="geometry" />
        </mxCell>
        <mxCell id="nLwUZ7-GpoZsQczw0JLD-12" value="Codice" style="text;html=1;align=center;verticalAlign=middle;resizable=0;points=[];autosize=1;strokeColor=none;fillColor=none;" vertex="1" parent="1">
          <mxGeometry x="20" y="12" width="60" height="24" as="geometry" />
        </mxCell>
        <mxCell id="nLwUZ7-GpoZsQczw0JLD-15" value="&amp;nbsp;&amp;nbsp;&amp;nbsp;&amp;nbsp;&amp;nbsp;&amp;nbsp; BitRate" style="text;html=1;align=center;verticalAlign=middle;resizable=0;points=[];autosize=1;strokeColor=none;fillColor=none;" vertex="1" parent="1">
          <mxGeometry x="-8" y="28" width="84" height="24" as="geometry" />
        </mxCell>
        <mxCell id="nLwUZ7-GpoZsQczw0JLD-16" value="Qualità" style="text;html=1;align=center;verticalAlign=middle;resizable=0;points=[];autosize=1;strokeColor=none;fillColor=none;" vertex="1" parent="1">
          <mxGeometry x="20" y="39.5" width="60" height="24" as="geometry" />
        </mxCell>
        <mxCell id="nLwUZ7-GpoZsQczw0JLD-18" value="Risoluzione" style="text;html=1;align=center;verticalAlign=middle;resizable=0;points=[];autosize=1;strokeColor=none;fillColor=none;" vertex="1" parent="1">
          <mxGeometry x="-14" y="55" width="96" height="24" as="geometry" />
        </mxCell>
        <mxCell id="nLwUZ7-GpoZsQczw0JLD-20" style="edgeStyle=orthogonalEdgeStyle;rounded=0;orthogonalLoop=1;jettySize=auto;html=1;entryX=1.017;entryY=0.542;entryDx=0;entryDy=0;entryPerimeter=0;exitX=0;exitY=0.75;exitDx=0;exitDy=0;endArrow=oval;endFill=0;" edge="1" parent="1" source="CA8DIJyEQ-BG8HpjzGWb-22" target="nLwUZ7-GpoZsQczw0JLD-18">
          <mxGeometry relative="1" as="geometry">
            <Array as="points">
              <mxPoint x="96" y="66" />
              <mxPoint x="96" y="68" />
            </Array>
          </mxGeometry>
        </mxCell>
        <mxCell id="nLwUZ7-GpoZsQczw0JLD-22" value="AspectRatio" style="text;html=1;align=center;verticalAlign=middle;resizable=0;points=[];autosize=1;strokeColor=none;fillColor=none;" vertex="1" parent="1">
          <mxGeometry x="234" y="59" width="96" height="24" as="geometry" />
        </mxCell>
        <mxCell id="nLwUZ7-GpoZsQczw0JLD-24" value="Famiglia" style="text;html=1;align=center;verticalAlign=middle;resizable=0;points=[];autosize=1;strokeColor=none;fillColor=none;" vertex="1" parent="1">
          <mxGeometry x="234" y="4" width="72" height="24" as="geometry" />
        </mxCell>
        <mxCell id="nLwUZ7-GpoZsQczw0JLD-25" style="edgeStyle=orthogonalEdgeStyle;rounded=0;orthogonalLoop=1;jettySize=auto;html=1;entryX=0.017;entryY=0.617;entryDx=0;entryDy=0;entryPerimeter=0;exitX=1.001;exitY=0.139;exitDx=0;exitDy=0;exitPerimeter=0;endArrow=oval;endFill=0;" edge="1" parent="1" source="CA8DIJyEQ-BG8HpjzGWb-22" target="nLwUZ7-GpoZsQczw0JLD-24">
          <mxGeometry relative="1" as="geometry">
            <Array as="points">
              <mxPoint x="213" y="19" />
            </Array>
          </mxGeometry>
        </mxCell>
        <mxCell id="nLwUZ7-GpoZsQczw0JLD-27" value="Codice" style="text;html=1;align=center;verticalAlign=middle;resizable=0;points=[];autosize=1;strokeColor=none;fillColor=none;" vertex="1" parent="1">
          <mxGeometry x="14" y="99.25" width="60" height="24" as="geometry" />
        </mxCell>
        <mxCell id="nLwUZ7-GpoZsQczw0JLD-30" value="BitRate" style="text;html=1;align=center;verticalAlign=middle;resizable=0;points=[];autosize=1;strokeColor=none;fillColor=none;" vertex="1" parent="1">
          <mxGeometry x="10" y="118" width="72" height="24" as="geometry" />
        </mxCell>
        <mxCell id="nLwUZ7-GpoZsQczw0JLD-34" style="edgeStyle=orthogonalEdgeStyle;rounded=0;orthogonalLoop=1;jettySize=auto;html=1;entryX=0.989;entryY=0.6;entryDx=0;entryDy=0;entryPerimeter=0;exitX=0.008;exitY=0.345;exitDx=0;exitDy=0;exitPerimeter=0;endArrow=oval;endFill=0;" edge="1" parent="1" source="CA8DIJyEQ-BG8HpjzGWb-15" target="nLwUZ7-GpoZsQczw0JLD-30">
          <mxGeometry relative="1" as="geometry" />
        </mxCell>
        <mxCell id="nLwUZ7-GpoZsQczw0JLD-35" value="Qualità" style="text;html=1;align=center;verticalAlign=middle;resizable=0;points=[];autosize=1;strokeColor=none;fillColor=none;" vertex="1" parent="1">
          <mxGeometry x="16" y="137.5" width="60" height="24" as="geometry" />
        </mxCell>
        <mxCell id="nLwUZ7-GpoZsQczw0JLD-36" style="edgeStyle=orthogonalEdgeStyle;rounded=0;orthogonalLoop=1;jettySize=auto;html=1;entryX=1.04;entryY=0.504;entryDx=0;entryDy=0;entryPerimeter=0;exitX=-0.007;exitY=0.581;exitDx=0;exitDy=0;exitPerimeter=0;endArrow=oval;endFill=0;" edge="1" parent="1" source="CA8DIJyEQ-BG8HpjzGWb-15" target="nLwUZ7-GpoZsQczw0JLD-35">
          <mxGeometry relative="1" as="geometry" />
        </mxCell>
        <mxCell id="nLwUZ7-GpoZsQczw0JLD-38" value="DataRilascio" style="text;html=1;align=center;verticalAlign=middle;resizable=0;points=[];autosize=1;strokeColor=none;fillColor=none;" vertex="1" parent="1">
          <mxGeometry x="-14" y="158" width="96" height="24" as="geometry" />
        </mxCell>
        <mxCell id="nLwUZ7-GpoZsQczw0JLD-39" style="edgeStyle=orthogonalEdgeStyle;rounded=0;orthogonalLoop=1;jettySize=auto;html=1;entryX=0.992;entryY=0.6;entryDx=0;entryDy=0;entryPerimeter=0;exitX=-0.003;exitY=0.893;exitDx=0;exitDy=0;exitPerimeter=0;endArrow=oval;endFill=0;" edge="1" parent="1" source="CA8DIJyEQ-BG8HpjzGWb-15" target="nLwUZ7-GpoZsQczw0JLD-38">
          <mxGeometry relative="1" as="geometry" />
        </mxCell>
        <mxCell id="nLwUZ7-GpoZsQczw0JLD-41" value="Famiglia" style="text;html=1;align=center;verticalAlign=middle;resizable=0;points=[];autosize=1;strokeColor=none;fillColor=none;" vertex="1" parent="1">
          <mxGeometry x="234" y="157" width="72" height="24" as="geometry" />
        </mxCell>
        <mxCell id="nLwUZ7-GpoZsQczw0JLD-44" value="Codice" style="text;html=1;align=center;verticalAlign=middle;resizable=0;points=[];autosize=1;strokeColor=none;fillColor=none;" vertex="1" parent="1">
          <mxGeometry x="435.75" y="23.5" width="60" height="24" as="geometry" />
        </mxCell>
        <mxCell id="nLwUZ7-GpoZsQczw0JLD-46" value="Lunghezza" style="text;html=1;align=center;verticalAlign=middle;resizable=0;points=[];autosize=1;strokeColor=none;fillColor=none;" vertex="1" parent="1">
          <mxGeometry x="475.5" y="23.5" width="84" height="24" as="geometry" />
        </mxCell>
        <mxCell id="nLwUZ7-GpoZsQczw0JLD-48" value="Dimensione" style="text;html=1;align=center;verticalAlign=middle;resizable=0;points=[];autosize=1;strokeColor=none;fillColor=none;" vertex="1" parent="1">
          <mxGeometry x="497" y="183" width="96" height="24" as="geometry" />
        </mxCell>
        <mxCell id="nLwUZ7-GpoZsQczw0JLD-54" style="edgeStyle=orthogonalEdgeStyle;rounded=0;orthogonalLoop=1;jettySize=auto;html=1;endArrow=none;endFill=0;" edge="1" parent="1" source="nLwUZ7-GpoZsQczw0JLD-51">
          <mxGeometry relative="1" as="geometry">
            <mxPoint x="756" y="120" as="targetPoint" />
          </mxGeometry>
        </mxCell>
        <mxCell id="nLwUZ7-GpoZsQczw0JLD-51" value="Audio" style="rhombus;whiteSpace=wrap;html=1;fillColor=#d5e8d4;strokeColor=#82b366;" vertex="1" parent="1">
          <mxGeometry x="625" y="63.5" width="80" height="53.25" as="geometry" />
        </mxCell>
        <mxCell id="nLwUZ7-GpoZsQczw0JLD-53" value="Sottotitolo" style="rhombus;whiteSpace=wrap;html=1;fillColor=#d5e8d4;strokeColor=#82b366;" vertex="1" parent="1">
          <mxGeometry x="625" y="122.5" width="80" height="44" as="geometry" />
        </mxCell>
        <mxCell id="nLwUZ7-GpoZsQczw0JLD-89" style="edgeStyle=orthogonalEdgeStyle;rounded=0;orthogonalLoop=1;jettySize=auto;html=1;endArrow=oval;endFill=1;" edge="1" parent="1" source="nLwUZ7-GpoZsQczw0JLD-55">
          <mxGeometry relative="1" as="geometry">
            <mxPoint x="792" y="60" as="targetPoint" />
          </mxGeometry>
        </mxCell>
        <mxCell id="nLwUZ7-GpoZsQczw0JLD-55" value="Lingua" style="whiteSpace=wrap;html=1;fillColor=#d5e8d4;strokeColor=#82b366;" vertex="1" parent="1">
          <mxGeometry x="732" y="95.5" width="120" height="60" as="geometry" />
        </mxCell>
        <mxCell id="nLwUZ7-GpoZsQczw0JLD-56" style="edgeStyle=orthogonalEdgeStyle;rounded=0;orthogonalLoop=1;jettySize=auto;html=1;entryX=-0.006;entryY=0.847;entryDx=0;entryDy=0;entryPerimeter=0;endArrow=none;endFill=0;" edge="1" parent="1" source="nLwUZ7-GpoZsQczw0JLD-53" target="nLwUZ7-GpoZsQczw0JLD-55">
          <mxGeometry relative="1" as="geometry" />
        </mxCell>
        <mxCell id="nLwUZ7-GpoZsQczw0JLD-57" value="(0,n)" style="text;html=1;align=center;verticalAlign=middle;resizable=0;points=[];autosize=1;strokeColor=none;fillColor=none;" vertex="1" parent="1">
          <mxGeometry x="722" y="71.5" width="48" height="24" as="geometry" />
        </mxCell>
        <mxCell id="nLwUZ7-GpoZsQczw0JLD-59" value="(0,n)" style="text;html=1;align=center;verticalAlign=middle;resizable=0;points=[];autosize=1;strokeColor=none;fillColor=none;" vertex="1" parent="1">
          <mxGeometry x="696" y="124.5" width="48" height="24" as="geometry" />
        </mxCell>
        <mxCell id="nLwUZ7-GpoZsQczw0JLD-60" value="(0,n)" style="text;html=1;align=center;verticalAlign=middle;resizable=0;points=[];autosize=1;strokeColor=none;fillColor=none;" vertex="1" parent="1">
          <mxGeometry x="545" y="118" width="48" height="24" as="geometry" />
        </mxCell>
        <mxCell id="nLwUZ7-GpoZsQczw0JLD-61" value="(1,1)" style="text;html=1;align=center;verticalAlign=middle;resizable=0;points=[];autosize=1;strokeColor=none;fillColor=none;" vertex="1" parent="1">
          <mxGeometry x="548" y="73" width="48" height="24" as="geometry" />
        </mxCell>
        <mxCell id="nLwUZ7-GpoZsQczw0JLD-63" style="edgeStyle=orthogonalEdgeStyle;rounded=0;orthogonalLoop=1;jettySize=auto;html=1;" edge="1" parent="1" source="nLwUZ7-GpoZsQczw0JLD-62">
          <mxGeometry relative="1" as="geometry">
            <mxPoint x="552" y="479.9999999999999" as="targetPoint" />
          </mxGeometry>
        </mxCell>
        <mxCell id="nLwUZ7-GpoZsQczw0JLD-81" style="edgeStyle=orthogonalEdgeStyle;rounded=0;orthogonalLoop=1;jettySize=auto;html=1;endArrow=oval;endFill=0;" edge="1" parent="1" source="nLwUZ7-GpoZsQczw0JLD-62">
          <mxGeometry relative="1" as="geometry">
            <mxPoint x="744" y="564" as="targetPoint" />
            <Array as="points">
              <mxPoint x="740" y="564" />
              <mxPoint x="740" y="565" />
              <mxPoint x="744" y="565" />
            </Array>
          </mxGeometry>
        </mxCell>
        <mxCell id="nLwUZ7-GpoZsQczw0JLD-62" value="Critico" style="whiteSpace=wrap;html=1;fillColor=#fff2cc;strokeColor=#d6b656;" vertex="1" parent="1">
          <mxGeometry x="600" y="520" width="120" height="48" as="geometry" />
        </mxCell>
        <mxCell id="nLwUZ7-GpoZsQczw0JLD-66" value="Recensione" style="rhombus;whiteSpace=wrap;html=1;fillColor=#fff2cc;strokeColor=#d6b656;" vertex="1" parent="1">
          <mxGeometry x="513.75" y="441" width="80" height="56" as="geometry" />
        </mxCell>
        <mxCell id="nLwUZ7-GpoZsQczw0JLD-67" style="edgeStyle=orthogonalEdgeStyle;rounded=0;orthogonalLoop=1;jettySize=auto;html=1;entryX=0.834;entryY=0.986;entryDx=0;entryDy=0;entryPerimeter=0;endArrow=none;endFill=0;" edge="1" parent="1" source="nLwUZ7-GpoZsQczw0JLD-66" target="Hz8rqVoHaeQYQRgCHm7I-1">
          <mxGeometry relative="1" as="geometry" />
        </mxCell>
        <mxCell id="nLwUZ7-GpoZsQczw0JLD-68" value="(0,n)" style="text;html=1;align=center;verticalAlign=middle;resizable=0;points=[];autosize=1;strokeColor=none;fillColor=none;" vertex="1" parent="1">
          <mxGeometry x="497" y="398" width="48" height="24" as="geometry" />
        </mxCell>
        <mxCell id="nLwUZ7-GpoZsQczw0JLD-69" value="(0,n)" style="text;html=1;align=center;verticalAlign=middle;resizable=0;points=[];autosize=1;strokeColor=none;fillColor=none;" vertex="1" parent="1">
          <mxGeometry x="559.5" y="520" width="48" height="24" as="geometry" />
        </mxCell>
        <mxCell id="nLwUZ7-GpoZsQczw0JLD-72" value="Codice" style="text;html=1;align=center;verticalAlign=middle;resizable=0;points=[];autosize=1;strokeColor=none;fillColor=none;" vertex="1" parent="1">
          <mxGeometry x="744" y="520" width="60" height="24" as="geometry" />
        </mxCell>
        <mxCell id="nLwUZ7-GpoZsQczw0JLD-73" style="edgeStyle=orthogonalEdgeStyle;rounded=0;orthogonalLoop=1;jettySize=auto;html=1;entryX=0.014;entryY=0.528;entryDx=0;entryDy=0;entryPerimeter=0;endArrow=oval;endFill=1;" edge="1" parent="1" source="nLwUZ7-GpoZsQczw0JLD-62" target="nLwUZ7-GpoZsQczw0JLD-72">
          <mxGeometry relative="1" as="geometry">
            <Array as="points">
              <mxPoint x="745" y="530" />
            </Array>
          </mxGeometry>
        </mxCell>
        <mxCell id="nLwUZ7-GpoZsQczw0JLD-78" value="Nome" style="text;html=1;align=center;verticalAlign=middle;resizable=0;points=[];autosize=1;strokeColor=none;fillColor=none;" vertex="1" parent="1">
          <mxGeometry x="745" y="536" width="60" height="24" as="geometry" />
        </mxCell>
        <mxCell id="nLwUZ7-GpoZsQczw0JLD-80" style="edgeStyle=orthogonalEdgeStyle;rounded=0;orthogonalLoop=1;jettySize=auto;html=1;entryX=0.017;entryY=0.595;entryDx=0;entryDy=0;entryPerimeter=0;endArrow=oval;endFill=0;" edge="1" parent="1" source="nLwUZ7-GpoZsQczw0JLD-62" target="nLwUZ7-GpoZsQczw0JLD-78">
          <mxGeometry relative="1" as="geometry">
            <Array as="points">
              <mxPoint x="745" y="550" />
            </Array>
          </mxGeometry>
        </mxCell>
        <mxCell id="nLwUZ7-GpoZsQczw0JLD-82" value="Cognome" style="text;html=1;align=center;verticalAlign=middle;resizable=0;points=[];autosize=1;strokeColor=none;fillColor=none;" vertex="1" parent="1">
          <mxGeometry x="732" y="554" width="84" height="24" as="geometry" />
        </mxCell>
        <mxCell id="nLwUZ7-GpoZsQczw0JLD-85" style="edgeStyle=orthogonalEdgeStyle;rounded=0;orthogonalLoop=1;jettySize=auto;html=1;entryX=0.474;entryY=1.038;entryDx=0;entryDy=0;entryPerimeter=0;exitX=1;exitY=0.5;exitDx=0;exitDy=0;endArrow=oval;endFill=0;" edge="1" parent="1" source="nLwUZ7-GpoZsQczw0JLD-66">
          <mxGeometry relative="1" as="geometry">
            <mxPoint x="640.19" y="465.9119999999999" as="targetPoint" />
            <Array as="points">
              <mxPoint x="640" y="469" />
            </Array>
          </mxGeometry>
        </mxCell>
        <mxCell id="nLwUZ7-GpoZsQczw0JLD-86" value="Data" style="text;html=1;align=center;verticalAlign=middle;resizable=0;points=[];autosize=1;strokeColor=none;fillColor=none;" vertex="1" parent="1">
          <mxGeometry x="563.75" y="411" width="48" height="24" as="geometry" />
        </mxCell>
        <mxCell id="nLwUZ7-GpoZsQczw0JLD-87" value="Valore" style="text;html=1;align=center;verticalAlign=middle;resizable=0;points=[];autosize=1;strokeColor=none;fillColor=none;" vertex="1" parent="1">
          <mxGeometry x="630" y="453" width="60" height="24" as="geometry" />
        </mxCell>
        <mxCell id="nLwUZ7-GpoZsQczw0JLD-88" style="edgeStyle=orthogonalEdgeStyle;rounded=0;orthogonalLoop=1;jettySize=auto;html=1;entryX=0.455;entryY=1.121;entryDx=0;entryDy=0;entryPerimeter=0;exitX=1;exitY=0;exitDx=0;exitDy=0;endArrow=oval;endFill=0;" edge="1" parent="1">
          <mxGeometry relative="1" as="geometry">
            <mxPoint x="572.75" y="456" as="sourcePoint" />
            <mxPoint x="584.5899999999997" y="438.904" as="targetPoint" />
          </mxGeometry>
        </mxCell>
        <mxCell id="nLwUZ7-GpoZsQczw0JLD-90" value="Nome" style="text;html=1;align=center;verticalAlign=middle;resizable=0;points=[];autosize=1;strokeColor=none;fillColor=none;" vertex="1" parent="1">
          <mxGeometry x="765" y="39.5" width="60" height="24" as="geometry" />
        </mxCell>
        <mxCell id="nLwUZ7-GpoZsQczw0JLD-98" style="edgeStyle=orthogonalEdgeStyle;rounded=0;orthogonalLoop=1;jettySize=auto;html=1;endArrow=oval;endFill=0;" edge="1" parent="1">
          <mxGeometry relative="1" as="geometry">
            <mxPoint x="1523" y="420" as="sourcePoint" />
            <mxPoint x="1523" y="447" as="targetPoint" />
          </mxGeometry>
        </mxCell>
        <mxCell id="nLwUZ7-GpoZsQczw0JLD-99" value="" style="edgeStyle=none;orthogonalLoop=1;jettySize=auto;html=1;rounded=0;endArrow=none;endFill=0;" edge="1" parent="1">
          <mxGeometry width="100" relative="1" as="geometry">
            <mxPoint x="1416" y="372" as="sourcePoint" />
            <mxPoint x="1548" y="432" as="targetPoint" />
            <Array as="points">
              <mxPoint x="1416" y="432" />
            </Array>
          </mxGeometry>
        </mxCell>
        <mxCell id="nLwUZ7-GpoZsQczw0JLD-101" value="Latitudine" style="text;html=1;align=center;verticalAlign=middle;resizable=0;points=[];autosize=1;strokeColor=none;fillColor=none;" vertex="1" parent="1">
          <mxGeometry x="829.75" y="940" width="84" height="24" as="geometry" />
        </mxCell>
        <mxCell id="nLwUZ7-GpoZsQczw0JLD-105" style="edgeStyle=orthogonalEdgeStyle;rounded=0;orthogonalLoop=1;jettySize=auto;html=1;endArrow=none;endFill=0;" edge="1" parent="1" source="nLwUZ7-GpoZsQczw0JLD-103">
          <mxGeometry relative="1" as="geometry">
            <mxPoint x="204" y="336" as="targetPoint" />
          </mxGeometry>
        </mxCell>
        <mxCell id="nLwUZ7-GpoZsQczw0JLD-103" value="Appartenenza" style="rhombus;whiteSpace=wrap;html=1;fillColor=#fff2cc;strokeColor=#d6b656;" vertex="1" parent="1">
          <mxGeometry x="240" y="250" width="88" height="50" as="geometry" />
        </mxCell>
        <mxCell id="nLwUZ7-GpoZsQczw0JLD-109" style="edgeStyle=orthogonalEdgeStyle;rounded=0;orthogonalLoop=1;jettySize=auto;html=1;endArrow=oval;endFill=1;" edge="1" parent="1" source="nLwUZ7-GpoZsQczw0JLD-106">
          <mxGeometry relative="1" as="geometry">
            <mxPoint x="204" y="396" as="targetPoint" />
          </mxGeometry>
        </mxCell>
        <mxCell id="nLwUZ7-GpoZsQczw0JLD-106" value="Genere" style="whiteSpace=wrap;html=1;fillColor=#fff2cc;strokeColor=#d6b656;" vertex="1" parent="1">
          <mxGeometry x="144" y="332" width="120" height="36" as="geometry" />
        </mxCell>
        <mxCell id="nLwUZ7-GpoZsQczw0JLD-110" value="Nome" style="text;html=1;align=center;verticalAlign=middle;resizable=0;points=[];autosize=1;strokeColor=none;fillColor=none;" vertex="1" parent="1">
          <mxGeometry x="174" y="398" width="60" height="24" as="geometry" />
        </mxCell>
        <mxCell id="nLwUZ7-GpoZsQczw0JLD-112" value="(0,n)" style="text;html=1;align=center;verticalAlign=middle;resizable=0;points=[];autosize=1;strokeColor=none;fillColor=none;" vertex="1" parent="1">
          <mxGeometry x="435" y="318" width="48" height="24" as="geometry" />
        </mxCell>
        <mxCell id="nLwUZ7-GpoZsQczw0JLD-113" value="(0,n)" style="text;html=1;align=center;verticalAlign=middle;resizable=0;points=[];autosize=1;strokeColor=none;fillColor=none;" vertex="1" parent="1">
          <mxGeometry x="192" y="308.5" width="48" height="24" as="geometry" />
        </mxCell>
        <mxCell id="nLwUZ7-GpoZsQczw0JLD-115" style="edgeStyle=orthogonalEdgeStyle;rounded=0;orthogonalLoop=1;jettySize=auto;html=1;endArrow=oval;endFill=1;" edge="1" parent="1" source="nLwUZ7-GpoZsQczw0JLD-114">
          <mxGeometry relative="1" as="geometry">
            <mxPoint x="1344" y="636" as="targetPoint" />
            <Array as="points">
              <mxPoint x="1325" y="636" />
              <mxPoint x="1325" y="637" />
            </Array>
          </mxGeometry>
        </mxCell>
        <mxCell id="nLwUZ7-GpoZsQczw0JLD-118" style="edgeStyle=orthogonalEdgeStyle;rounded=0;orthogonalLoop=1;jettySize=auto;html=1;endArrow=oval;endFill=0;" edge="1" parent="1" source="nLwUZ7-GpoZsQczw0JLD-114">
          <mxGeometry relative="1" as="geometry">
            <mxPoint x="1344" y="660" as="targetPoint" />
            <Array as="points">
              <mxPoint x="1325" y="660" />
              <mxPoint x="1325" y="661" />
            </Array>
          </mxGeometry>
        </mxCell>
        <mxCell id="nLwUZ7-GpoZsQczw0JLD-120" style="edgeStyle=orthogonalEdgeStyle;rounded=0;orthogonalLoop=1;jettySize=auto;html=1;exitX=0.117;exitY=0.033;exitDx=0;exitDy=0;exitPerimeter=0;endArrow=oval;endFill=0;" edge="1" parent="1" source="nLwUZ7-GpoZsQczw0JLD-114">
          <mxGeometry relative="1" as="geometry">
            <mxPoint x="1200" y="588" as="targetPoint" />
          </mxGeometry>
        </mxCell>
        <mxCell id="nLwUZ7-GpoZsQczw0JLD-122" style="edgeStyle=orthogonalEdgeStyle;rounded=0;orthogonalLoop=1;jettySize=auto;html=1;endArrow=oval;endFill=0;" edge="1" parent="1" source="nLwUZ7-GpoZsQczw0JLD-114">
          <mxGeometry relative="1" as="geometry">
            <mxPoint x="1245" y="588" as="targetPoint" />
          </mxGeometry>
        </mxCell>
        <mxCell id="nLwUZ7-GpoZsQczw0JLD-124" style="edgeStyle=orthogonalEdgeStyle;rounded=0;orthogonalLoop=1;jettySize=auto;html=1;exitX=0.95;exitY=0.05;exitDx=0;exitDy=0;exitPerimeter=0;endArrow=oval;endFill=0;" edge="1" parent="1" source="nLwUZ7-GpoZsQczw0JLD-114">
          <mxGeometry relative="1" as="geometry">
            <mxPoint x="1296" y="588" as="targetPoint" />
          </mxGeometry>
        </mxCell>
        <mxCell id="nLwUZ7-GpoZsQczw0JLD-126" style="edgeStyle=orthogonalEdgeStyle;rounded=0;orthogonalLoop=1;jettySize=auto;html=1;" edge="1" parent="1" source="nLwUZ7-GpoZsQczw0JLD-114">
          <mxGeometry relative="1" as="geometry">
            <mxPoint x="1104" y="612" as="targetPoint" />
          </mxGeometry>
        </mxCell>
        <mxCell id="nLwUZ7-GpoZsQczw0JLD-114" value="Posizione" style="whiteSpace=wrap;html=1;fillColor=#f8cecc;strokeColor=#b85450;" vertex="1" parent="1">
          <mxGeometry x="1185" y="618" width="120" height="60" as="geometry" />
        </mxCell>
        <mxCell id="nLwUZ7-GpoZsQczw0JLD-116" value="NumeroInizio" style="text;html=1;align=center;verticalAlign=middle;resizable=0;points=[];autosize=1;strokeColor=none;fillColor=none;" vertex="1" parent="1">
          <mxGeometry x="1341" y="621" width="96" height="24" as="geometry" />
        </mxCell>
        <mxCell id="nLwUZ7-GpoZsQczw0JLD-119" value="NumeroFine" style="text;html=1;align=center;verticalAlign=middle;resizable=0;points=[];autosize=1;strokeColor=none;fillColor=none;" vertex="1" parent="1">
          <mxGeometry x="1341" y="650" width="96" height="24" as="geometry" />
        </mxCell>
        <mxCell id="nLwUZ7-GpoZsQczw0JLD-121" value="Stato" style="text;html=1;align=center;verticalAlign=middle;resizable=0;points=[];autosize=1;strokeColor=none;fillColor=none;" vertex="1" parent="1">
          <mxGeometry x="1166" y="565" width="60" height="24" as="geometry" />
        </mxCell>
        <mxCell id="nLwUZ7-GpoZsQczw0JLD-123" value="Latitudine" style="text;html=1;align=center;verticalAlign=middle;resizable=0;points=[];autosize=1;strokeColor=none;fillColor=none;" vertex="1" parent="1">
          <mxGeometry x="1200" y="566" width="84" height="24" as="geometry" />
        </mxCell>
        <mxCell id="nLwUZ7-GpoZsQczw0JLD-125" value="Longitudine" style="text;html=1;align=center;verticalAlign=middle;resizable=0;points=[];autosize=1;strokeColor=none;fillColor=none;" vertex="1" parent="1">
          <mxGeometry x="1261" y="568" width="96" height="24" as="geometry" />
        </mxCell>
        <mxCell id="nLwUZ7-GpoZsQczw0JLD-130" style="edgeStyle=orthogonalEdgeStyle;rounded=0;orthogonalLoop=1;jettySize=auto;html=1;entryX=0.75;entryY=1;entryDx=0;entryDy=0;endArrow=none;endFill=0;" edge="1" parent="1" source="nLwUZ7-GpoZsQczw0JLD-127" target="CA8DIJyEQ-BG8HpjzGWb-62">
          <mxGeometry relative="1" as="geometry" />
        </mxCell>
        <mxCell id="nLwUZ7-GpoZsQczw0JLD-127" value="Possesso" style="rhombus;whiteSpace=wrap;html=1;fillColor=#f8cecc;strokeColor=#b85450;" vertex="1" parent="1">
          <mxGeometry x="1065" y="582" width="80" height="56" as="geometry" />
        </mxCell>
        <mxCell id="nLwUZ7-GpoZsQczw0JLD-131" value="(1,1)" style="text;html=1;align=center;verticalAlign=middle;resizable=0;points=[];autosize=1;strokeColor=none;fillColor=none;" vertex="1" parent="1">
          <mxGeometry x="1040.5" y="540" width="48" height="24" as="geometry" />
        </mxCell>
        <mxCell id="nLwUZ7-GpoZsQczw0JLD-132" value="(0,n)" style="text;html=1;align=center;verticalAlign=middle;resizable=0;points=[];autosize=1;strokeColor=none;fillColor=none;" vertex="1" parent="1">
          <mxGeometry x="1142" y="626" width="48" height="24" as="geometry" />
        </mxCell>
        <mxCell id="nLwUZ7-GpoZsQczw0JLD-136" value="(0,n)" style="text;html=1;align=center;verticalAlign=middle;resizable=0;points=[];autosize=1;strokeColor=none;fillColor=none;" vertex="1" parent="1">
          <mxGeometry x="513.75" y="59" width="48" height="24" as="geometry" />
        </mxCell>
        <mxCell id="nLwUZ7-GpoZsQczw0JLD-138" style="edgeStyle=orthogonalEdgeStyle;rounded=0;orthogonalLoop=1;jettySize=auto;html=1;endArrow=none;endFill=0;" edge="1" parent="1" source="nLwUZ7-GpoZsQczw0JLD-137">
          <mxGeometry relative="1" as="geometry">
            <mxPoint x="1008" y="36.5" as="targetPoint" />
          </mxGeometry>
        </mxCell>
        <mxCell id="nLwUZ7-GpoZsQczw0JLD-137" value="Vietato" style="rhombus;whiteSpace=wrap;html=1;fillColor=#d5e8d4;strokeColor=#82b366;" vertex="1" parent="1">
          <mxGeometry x="885" y="8.5" width="80" height="56" as="geometry" />
        </mxCell>
        <mxCell id="nLwUZ7-GpoZsQczw0JLD-140" style="edgeStyle=orthogonalEdgeStyle;rounded=0;orthogonalLoop=1;jettySize=auto;html=1;endArrow=oval;endFill=1;" edge="1" parent="1" source="nLwUZ7-GpoZsQczw0JLD-139">
          <mxGeometry relative="1" as="geometry">
            <mxPoint x="1116" y="84" as="targetPoint" />
            <Array as="points">
              <mxPoint x="1116" y="72" />
              <mxPoint x="1116" y="72" />
            </Array>
          </mxGeometry>
        </mxCell>
        <mxCell id="nLwUZ7-GpoZsQczw0JLD-139" value="Stato" style="whiteSpace=wrap;html=1;fillColor=#d5e8d4;strokeColor=#82b366;" vertex="1" parent="1">
          <mxGeometry x="1010" y="11" width="120" height="48" as="geometry" />
        </mxCell>
        <mxCell id="nLwUZ7-GpoZsQczw0JLD-142" value="Nome" style="text;html=1;align=center;verticalAlign=middle;resizable=0;points=[];autosize=1;strokeColor=none;fillColor=none;" vertex="1" parent="1">
          <mxGeometry x="1082" y="85" width="60" height="24" as="geometry" />
        </mxCell>
        <mxCell id="nLwUZ7-GpoZsQczw0JLD-143" value="(0,n)" style="text;html=1;align=center;verticalAlign=middle;resizable=0;points=[];autosize=1;strokeColor=none;fillColor=none;" vertex="1" parent="1">
          <mxGeometry x="968" y="13" width="48" height="24" as="geometry" />
        </mxCell>
        <mxCell id="nLwUZ7-GpoZsQczw0JLD-146" value="Servizio" style="rhombus;whiteSpace=wrap;html=1;fillColor=#f8cecc;strokeColor=#b85450;" vertex="1" parent="1">
          <mxGeometry x="1406" y="240" width="80" height="60" as="geometry" />
        </mxCell>
        <mxCell id="nLwUZ7-GpoZsQczw0JLD-147" style="edgeStyle=orthogonalEdgeStyle;rounded=0;orthogonalLoop=1;jettySize=auto;html=1;entryX=0.864;entryY=-0.001;entryDx=0;entryDy=0;entryPerimeter=0;endArrow=none;endFill=0;exitX=0.5;exitY=1;exitDx=0;exitDy=0;" edge="1" parent="1" source="nLwUZ7-GpoZsQczw0JLD-146" target="CA8DIJyEQ-BG8HpjzGWb-55">
          <mxGeometry relative="1" as="geometry">
            <Array as="points">
              <mxPoint x="1464" y="300" />
              <mxPoint x="1464" y="340" />
              <mxPoint x="1520" y="340" />
            </Array>
          </mxGeometry>
        </mxCell>
        <mxCell id="nLwUZ7-GpoZsQczw0JLD-148" value="(1,n)" style="text;html=1;align=center;verticalAlign=middle;resizable=0;points=[];autosize=1;strokeColor=none;fillColor=none;" vertex="1" parent="1">
          <mxGeometry x="1520" y="349" width="48" height="24" as="geometry" />
        </mxCell>
        <mxCell id="nLwUZ7-GpoZsQczw0JLD-149" value="(0,n)" style="text;html=1;align=center;verticalAlign=middle;resizable=0;points=[];autosize=1;strokeColor=none;fillColor=none;" vertex="1" parent="1">
          <mxGeometry x="1389" y="153.5" width="48" height="24" as="geometry" />
        </mxCell>
        <mxCell id="nLwUZ7-GpoZsQczw0JLD-152" value="Id" style="text;html=1;align=center;verticalAlign=middle;resizable=0;points=[];autosize=1;strokeColor=none;fillColor=none;" vertex="1" parent="1">
          <mxGeometry x="1384" y="573" width="36" height="24" as="geometry" />
        </mxCell>
        <mxCell id="nLwUZ7-GpoZsQczw0JLD-155" value="(0,n)" style="text;html=1;align=center;verticalAlign=middle;resizable=0;points=[];autosize=1;strokeColor=none;fillColor=none;" vertex="1" parent="1">
          <mxGeometry x="103.12" y="334" width="48" height="24" as="geometry" />
        </mxCell>
        <mxCell id="nLwUZ7-GpoZsQczw0JLD-156" value="Genere Vietato" style="rhombus;whiteSpace=wrap;html=1;fillColor=#f8cecc;strokeColor=#b85450;" vertex="1" parent="1">
          <mxGeometry x="1334" y="1014" width="80" height="80" as="geometry" />
        </mxCell>
        <mxCell id="nLwUZ7-GpoZsQczw0JLD-161" style="edgeStyle=orthogonalEdgeStyle;rounded=0;orthogonalLoop=1;jettySize=auto;html=1;entryX=-0.085;entryY=0.429;entryDx=0;entryDy=0;entryPerimeter=0;endArrow=oval;endFill=1;" edge="1" parent="1" source="CA8DIJyEQ-BG8HpjzGWb-42" target="X5VYXHr65bgpFRcitx1M-96">
          <mxGeometry relative="1" as="geometry">
            <Array as="points">
              <mxPoint x="730" y="264" />
              <mxPoint x="770" y="264" />
            </Array>
          </mxGeometry>
        </mxCell>
        <mxCell id="nLwUZ7-GpoZsQczw0JLD-166" style="edgeStyle=orthogonalEdgeStyle;rounded=0;orthogonalLoop=1;jettySize=auto;html=1;" edge="1" parent="1" source="nLwUZ7-GpoZsQczw0JLD-163">
          <mxGeometry relative="1" as="geometry">
            <mxPoint x="744" y="225.2499999999999" as="targetPoint" />
          </mxGeometry>
        </mxCell>
        <mxCell id="nLwUZ7-GpoZsQczw0JLD-163" value="Selezione" style="rhombus;whiteSpace=wrap;html=1;fillColor=#f8cecc;strokeColor=#b85450;" vertex="1" parent="1">
          <mxGeometry x="816" y="204" width="76.5" height="42.5" as="geometry" />
        </mxCell>
        <mxCell id="nLwUZ7-GpoZsQczw0JLD-170" style="edgeStyle=orthogonalEdgeStyle;rounded=0;orthogonalLoop=1;jettySize=auto;html=1;endArrow=oval;endFill=1;" edge="1" parent="1" source="nLwUZ7-GpoZsQczw0JLD-167">
          <mxGeometry relative="1" as="geometry">
            <mxPoint x="600" y="221.9999999999999" as="targetPoint" />
          </mxGeometry>
        </mxCell>
        <mxCell id="nLwUZ7-GpoZsQczw0JLD-167" value="Preferenza" style="whiteSpace=wrap;html=1;fillColor=#f8cecc;strokeColor=#b85450;" vertex="1" parent="1">
          <mxGeometry x="630" y="204" width="120" height="36" as="geometry" />
        </mxCell>
        <mxCell id="nLwUZ7-GpoZsQczw0JLD-168" value="(0,n)" style="text;html=1;align=center;verticalAlign=middle;resizable=0;points=[];autosize=1;strokeColor=none;fillColor=none;" vertex="1" parent="1">
          <mxGeometry x="920" y="229" width="48" height="24" as="geometry" />
        </mxCell>
        <mxCell id="nLwUZ7-GpoZsQczw0JLD-169" value="(0,n)" style="text;html=1;align=center;verticalAlign=middle;resizable=0;points=[];autosize=1;strokeColor=none;fillColor=none;" vertex="1" parent="1">
          <mxGeometry x="747" y="197.25" width="48" height="24" as="geometry" />
        </mxCell>
        <mxCell id="nLwUZ7-GpoZsQczw0JLD-171" value="Nome" style="text;html=1;align=center;verticalAlign=middle;resizable=0;points=[];autosize=1;strokeColor=none;fillColor=none;" vertex="1" parent="1">
          <mxGeometry x="548" y="210" width="60" height="24" as="geometry" />
        </mxCell>
      </root>
    </mxGraphModel>
  </diagram>
</mxfile>
